<?xml version="1.0" encoding="utf-8"?>
<!-- Generator: Adobe Illustrator 25.3.0, SVG Export Plug-In . SVG Version: 6.00 Build 0)  -->
<svg version="1.1" xmlns="http://www.w3.org/2000/svg" xmlns:xlink="http://www.w3.org/1999/xlink" x="0px" y="0px"
	 viewBox="0 0 500 500" style="enable-background:new 0 0 500 500;" xml:space="preserve">
<style type="text/css">
	.st0{fill:#EBEBEB;}
	.st1{fill:#E0E0E0;}
	.st2{fill:#F5F5F5;}
	.st3{display:none;}
	.st4{display:inline;fill:#F5F5F5;}
	.st5{fill:#263238;}
	.st6{fill:#AE7461;}
	.st7{fill:#FF725E;}
	.st8{fill:#455A64;}
	.st9{fill:#6F4439;}
	.st10{fill:#FFFFFF;}
	.st11{opacity:0.3;}
</style>
<g id="Background_Complete">
	<g>
		
			<ellipse transform="matrix(0.2284 -0.9736 0.9736 0.2284 197.05 502.327)" class="st0" cx="415.42" cy="126.86" rx="14.31" ry="14.31"/>
		<g>
			<path class="st1" d="M419.04,109c-0.19,0-0.34-5.95-0.34-13.3c0-7.34,0.15-13.3,0.34-13.3c0.19,0,0.34,5.95,0.34,13.3
				C419.37,103.05,419.22,109,419.04,109z"/>
		</g>
		<g>
			<path class="st1" d="M412.98,99.73c-0.19,0-0.34-4.53-0.34-10.11c0-5.59,0.15-10.12,0.34-10.12c0.19,0,0.34,4.53,0.34,10.12
				C413.32,95.2,413.17,99.73,412.98,99.73z"/>
		</g>
	</g>
	<g>
		
			<ellipse transform="matrix(0.7071 -0.7071 0.7071 0.7071 -186.5705 132.2904)" class="st0" cx="66.4" cy="291.36" rx="13.31" ry="13.31"/>
		<g>
			<path class="st1" d="M69.77,274.75c-0.17,0-0.31-5.54-0.31-12.37c0-6.83,0.14-12.37,0.31-12.37c0.17,0,0.31,5.54,0.31,12.37
				C70.09,269.21,69.95,274.75,69.77,274.75z"/>
		</g>
		<g>
			<path class="st1" d="M64.14,266.12c-0.17,0-0.31-4.21-0.31-9.41c0-5.2,0.14-9.41,0.31-9.41s0.31,4.21,0.31,9.41
				C64.45,261.91,64.31,266.12,64.14,266.12z"/>
		</g>
	</g>
	<rect x="337.7" y="338.22" class="st0" width="97.75" height="124.06"/>
	<rect x="305.6" y="420.14" class="st1" width="84.26" height="42.13"/>
	
		<ellipse transform="matrix(0.1614 -0.9869 0.9869 0.1614 -110.6082 662.5702)" class="st2" cx="334.56" cy="396.37" rx="23.91" ry="23.91"/>
	<rect x="103.85" y="323.6" class="st0" width="61.47" height="61.47"/>
	<rect x="96.32" y="385.07" class="st1" width="76.55" height="77.21"/>
	<rect x="45.07" y="424" class="st0" width="76.55" height="38.27"/>
	<circle class="st0" cx="84.5" cy="404.68" r="23.91"/>
</g>
<g id="Background_Simple" class="st3">
	<path class="st4" d="M450.81,309.58l-0.8-1.33c-6.79-11.18-19.05-17.92-31.99-17.1c-1.66,0.11-3.32,0.33-4.95,0.68
		c-11.76,2.52-21.99,11.41-26.23,22.8c-2.49,6.7-3.19,14.41-7.92,19.73c-6.16,6.92-16.62,7.14-25.82,6.85
		c-9.2-0.29-19.66-0.04-25.79,6.9c-3.84,4.35-5.06,10.54-4.75,16.36c0.82,15.43,11.57,29.22,25.24,36.07
		c13.67,6.86,29.76,7.47,44.73,4.45c20.96-4.22,40.89-15.83,52.87-33.75C457.36,353.34,460.39,328.92,450.81,309.58z"/>
	<path class="st4" d="M53.04,255.96l0.84-0.49c7.07-4.12,15.83-4.16,22.7,0.16c0.88,0.55,1.73,1.17,2.52,1.85
		c5.71,4.9,8.68,12.85,7.61,20.38c-0.63,4.43-2.55,8.88-1.54,13.21c1.32,5.65,7,8.89,12.14,11.48c5.14,2.59,10.82,5.85,12.12,11.51
		c0.81,3.54-0.37,7.31-2.28,10.42c-5.06,8.24-15.09,12.61-24.66,12.29c-9.56-0.32-18.6-4.79-25.92-10.92
		c-10.26-8.59-17.75-20.93-18.98-34.36C36.35,278.06,41.99,263.73,53.04,255.96z"/>
	<path class="st4" d="M376.5,47.28l-0.83,0.5c-7,4.25-11.22,11.92-10.7,20.02c0.07,1.04,0.21,2.08,0.43,3.1
		c1.58,7.36,7.14,13.76,14.27,16.42c4.19,1.56,9.02,2,12.35,4.96c4.33,3.86,4.47,10.4,4.29,16.16c-0.18,5.75-0.03,12.3,4.32,16.14
		c2.72,2.4,6.59,3.17,10.24,2.97c9.65-0.51,18.29-7.24,22.58-15.79c4.29-8.55,4.67-18.63,2.79-27.99
		c-2.64-13.12-9.9-25.59-21.12-33.09C403.88,43.18,388.6,41.29,376.5,47.28z"/>
</g>
<g id="Floor">
	<g>
		<path class="st5" d="M477.51,462.28c0,0.14-102.69,0.26-229.33,0.26c-126.69,0-229.36-0.12-229.36-0.26
			c0-0.14,102.67-0.26,229.36-0.26C374.82,462.01,477.51,462.13,477.51,462.28z"/>
	</g>
</g>
<g id="Character">
	<path class="st6" d="M320.63,295.21l-17.36,12.62c1.28,3.75,5.31,6.09,9.27,6.27c3.96,0.18,7.81-1.43,11.15-3.56
		c3.34-2.13,6.31-4.8,9.57-7.05C329.73,299.85,325.38,297,320.63,295.21z"/>
	<g>
		
			<rect x="188.45" y="71.31" transform="matrix(0.3413 -0.94 0.94 0.3413 -56.7119 363.8705)" class="st7" width="85.6" height="302.18"/>
		<g>
			<path class="st5" d="M358.67,314.19c0.42-1.15,10.73-29.73,29.06-80.52l0.1,0.21c-65.56-23.78-168.54-61.13-284.06-103.02
				l-0.02-0.01l0.33-0.16c-10.07,27.74-19.88,54.75-29.22,80.46l-0.15-0.33c81.32,29.57,152.28,55.38,202.93,73.8
				C328.26,303.09,357.5,313.76,358.67,314.19c-1.16-0.42-30.38-10.98-80.96-29.25c-50.7-18.38-121.75-44.13-203.17-73.64
				l-0.24-0.09l0.09-0.24c9.33-25.71,19.14-52.72,29.21-80.46l0.09-0.24l0.24,0.09l0.02,0.01
				c115.49,41.97,218.44,79.39,283.99,103.21l0.15,0.06l-0.06,0.15C369.51,284.5,359.08,313.04,358.67,314.19z"/>
		</g>
	</g>
	
		<rect x="258.39" y="237.97" transform="matrix(0.993 0.1184 -0.1184 0.993 31.4151 -31.1312)" class="st8" width="38.78" height="21.86"/>
	<g>
		<g>
			<path class="st7" d="M142.53,247c-0.17,0.52,9.97,46.05,15.33,53.14c4.48,5.93,10,6.41,19.08,5.04
				c8.96-1.36,42.94-4.69,42.94-4.69l-1.92-20.91l-43.55-1.05l-17.42-37.46L142.53,247z"/>
			<g>
				<path class="st5" d="M174.44,278.89c0.13,0.02-0.28,2.31-1.55,4.84c-1.27,2.54-2.85,4.23-2.95,4.14
					c-0.12-0.1,1.25-1.9,2.48-4.38C173.67,281.03,174.29,278.85,174.44,278.89z"/>
			</g>
		</g>
		<g>
			<g>
				<path class="st5" d="M172.91,262.2c1.54,7.13,10.44,11.44,10.56,18.73c0.1,5.64-5.11,9.75-7.64,14.79
					c-1.88,3.75-2.26,8.24-1.02,12.25c1.24,4.01,4.07,7.51,7.74,9.55c1.85-0.71,3.7-1.42,5.56-2.13c-2.6-2.7-3.74-6.73-2.93-10.4
					c0.81-3.66,3.55-6.84,7.05-8.18l5.18-22.05L172.91,262.2z"/>
				<path class="st5" d="M223.43,231.86c-4.79-7.79-13.97-15.64-22.07-17.23l-18.82,44.98c5.88,4.26,6.96,12.63,6.04,19.84
					c-0.91,7.2-3.29,14.38-2.32,21.58c0.83,6.17,4.37,12.09,9.84,15.07c5.46,2.98,12.81,2.57,17.45-1.58
					c3.28-2.93,4.93-7.23,6.46-11.35c2.6-7,5.2-14,7.81-21c3.27-8.8,3.89-18.4,3.29-27.77
					C230.43,243.65,228.16,239.56,223.43,231.86z"/>
				<g>
					<g>
						<g>
							<path class="st5" d="M199.75,214.26c-9.52-1.82-18.62,0.15-26.16,6.25c-4.25,3.44-5.26,5.76-7.6,9.1
								c-2.34,3.34-3.71,7.24-3.38,11.31c0.4,4.83,1.45,9.74,4.13,13.77c2.76,4.14,5.54,8.31,9.01,11.88
								c3.47,3.57,7.71,6.54,12.54,7.76l11.1-6.42c5.5-4.29,11.08-8.65,15.27-14.23c4.19-5.58,6.91-12.62,5.89-19.52
								C219.1,224.57,209.27,216.08,199.75,214.26z"/>
						</g>
					</g>
					<g>
						<g>
							<path class="st6" d="M191.07,221.4l-17.21,5.66l-3.05,3.21c-7.57,6.37-5.81,19.13-0.72,25.32
								c5.66,6.88,12.83,15.05,18.13,19.18c10.65,8.3,20,1.92,20,1.92s4.33,5.54,7.11,9l17.21,5.41l1.37-23.37l-36.53-45.72
								C195.76,220.2,193.02,219.94,191.07,221.4z"/>
						</g>
						<g>
							<g>
								<g>
									<g>
										<g>
											<g>
												<g>
													<g>
														<g>
															<g>
																<g>
																	<g>
																		<g>
																			<g>
																				<g>
																					<g>
																						<g>
																							<g>
																								<g>
																									<g>
																										<g>
																											<path class="st5" d="M181.43,259.53c0.59,0.68,1.66,0.74,2.38,0.14c0.72-0.6,0.83-1.65,0.24-2.33
																												c-0.59-0.68-1.66-0.74-2.38-0.14C180.94,257.81,180.84,258.85,181.43,259.53z"/>
																										</g>
																									</g>
																								</g>
																							</g>
																						</g>
																					</g>
																				</g>
																			</g>
																		</g>
																	</g>
																</g>
															</g>
														</g>
													</g>
												</g>
											</g>
										</g>
									</g>
									<g>
										<g>
											<g>
												<g>
													<g>
														<g>
															<g>
																<g>
																	<g>
																		<g>
																			<g>
																				<g>
																					<g>
																						<g>
																							<g>
																								<g>
																									<g>
																										<g>
																											<g>
																												<path class="st5" d="M175.27,257.08c0.31,0.02,0.6-1.57,1.95-2.82c1.33-1.27,2.96-1.5,2.95-1.8
																													c0-0.14-0.43-0.29-1.15-0.2c-0.71,0.08-1.72,0.45-2.55,1.24c-0.83,0.79-1.25,1.75-1.36,2.45
																													C174.99,256.65,175.12,257.07,175.27,257.08z"/>
																											</g>
																										</g>
																									</g>
																								</g>
																							</g>
																						</g>
																					</g>
																				</g>
																			</g>
																		</g>
																	</g>
																</g>
															</g>
														</g>
													</g>
												</g>
											</g>
										</g>
									</g>
									<g>
										<g>
											<g>
												<g>
													<g>
														<g>
															<g>
																<g>
																	<g>
																		<g>
																			<g>
																				<g>
																					<g>
																						<g>
																							<g>
																								<g>
																									<g>
																										<g>
																											<path class="st5" d="M193.57,260.56c-0.06-0.08-1.04,0.55-2.55,1.65c-0.38,0.28-0.77,0.52-1.04,0.34
																												c-0.31-0.17-0.51-0.68-0.72-1.23c-0.45-1.13-0.93-2.32-1.43-3.56c-2.07-5.04-3.9-9.06-4.11-8.97
																												c-0.2,0.09,1.31,4.24,3.37,9.28c0.52,1.24,1.01,2.41,1.48,3.54c0.23,0.51,0.42,1.16,1.08,1.51
																												c0.33,0.17,0.76,0.12,1.03-0.03c0.28-0.14,0.48-0.32,0.66-0.46
																												C192.78,261.42,193.64,260.64,193.57,260.56z"/>
																										</g>
																									</g>
																								</g>
																							</g>
																						</g>
																					</g>
																				</g>
																			</g>
																		</g>
																	</g>
																</g>
															</g>
														</g>
													</g>
												</g>
											</g>
										</g>
									</g>
									<g>
										<g>
											<g>
												<g>
													<g>
														<g>
															<g>
																<g>
																	<g>
																		<g>
																			<g>
																				<g>
																					<g>
																						<g>
																							<g>
																								<g>
																									<g>
																										<path class="st9" d="M208.19,276.7c0,0,6.95-5.7,9.8-15.67c0,0,2.83,10-7.78,18.2L208.19,276.7z"/>
																									</g>
																								</g>
																							</g>
																						</g>
																					</g>
																				</g>
																			</g>
																		</g>
																	</g>
																</g>
															</g>
														</g>
													</g>
												</g>
											</g>
										</g>
									</g>
									<g>
										<g>
											<g>
												<g>
													<g>
														<g>
															<g>
																<g>
																	<g>
																		<g>
																			<g>
																				<g>
																					<g>
																						<g>
																							<g>
																								<g>
																									<g>
																										<g>
																											<g>
																												<g>
																													<path class="st5" d="M174.45,245.59c-0.53,0.13-0.74,1.56-1.44,3.06c-0.65,1.52-1.58,2.63-1.33,3.11
																														c0.13,0.22,0.6,0.2,1.22-0.18c0.62-0.37,1.35-1.14,1.81-2.17c0.46-1.04,0.55-2.09,0.41-2.79
																														C175.01,245.9,174.71,245.54,174.45,245.59z"/>
																												</g>
																											</g>
																										</g>
																									</g>
																								</g>
																							</g>
																						</g>
																					</g>
																				</g>
																			</g>
																		</g>
																	</g>
																</g>
															</g>
														</g>
													</g>
												</g>
											</g>
										</g>
									</g>
									<g>
										<g>
											<g>
												<g>
													<g>
														<g>
															<g>
																<g>
																	<g>
																		<g>
																			<g>
																				<g>
																					<g>
																						<g>
																							<g>
																								<g>
																									<g>
																										<g>
																											<path class="st5" d="M196.69,245.77c0.62,0.66,0.56,1.73-0.12,2.38c-0.68,0.65-1.73,0.65-2.34-0.01
																												c-0.62-0.66-0.56-1.73,0.12-2.38C195.02,245.1,196.07,245.1,196.69,245.77z"/>
																										</g>
																									</g>
																								</g>
																							</g>
																						</g>
																					</g>
																				</g>
																			</g>
																		</g>
																	</g>
																</g>
															</g>
														</g>
													</g>
												</g>
											</g>
										</g>
									</g>
									<g>
										<g>
											<g>
												<g>
													<g>
														<g>
															<g>
																<g>
																	<g>
																		<g>
																			<g>
																				<g>
																					<g>
																						<g>
																							<g>
																								<g>
																									<g>
																										<g>
																											<g>
																												<path class="st5" d="M193.89,240.58c-0.01,0.31-1.62,0.43-3.01,1.64c-1.4,1.19-1.8,2.79-2.1,2.75
																													c-0.14-0.01-0.24-0.46-0.08-1.17c0.16-0.7,0.63-1.66,1.5-2.41c0.87-0.75,1.88-1.06,2.58-1.09
																													C193.5,240.26,193.9,240.44,193.89,240.58z"/>
																											</g>
																										</g>
																									</g>
																								</g>
																							</g>
																						</g>
																					</g>
																				</g>
																			</g>
																		</g>
																	</g>
																</g>
															</g>
														</g>
													</g>
												</g>
											</g>
										</g>
									</g>
									<g>
										<g>
											<g>
												<g>
													<g>
														<g>
															<g>
																<g>
																	<g>
																		<g>
																			<g>
																				<g>
																					<g>
																						<g>
																							<g>
																								<g>
																									<g>
																										<g>
																											<g>
																												<g>
																													<path class="st5" d="M184.72,240.88c0.17-0.53,1.65-0.68,3.23-1.32c1.6-0.59,2.8-1.48,3.27-1.21
																														c0.22,0.14,0.17,0.61-0.26,1.22c-0.42,0.6-1.25,1.31-2.35,1.73c-1.09,0.42-2.18,0.47-2.89,0.31
																														C185,241.45,184.66,241.13,184.72,240.88z"/>
																												</g>
																											</g>
																										</g>
																									</g>
																								</g>
																							</g>
																						</g>
																					</g>
																				</g>
																			</g>
																		</g>
																	</g>
																</g>
															</g>
														</g>
													</g>
												</g>
											</g>
										</g>
									</g>
								</g>
							</g>
						</g>
						<g>
							<g>
								<g>
									<g>
										<g>
											<g>
												<g>
													<g>
														<g>
															<g>
																<g>
																	<g>
																		<g>
																			<g>
																				<g>
																					<g>
																						<g>
																							<g>
																								<path class="st6" d="M209.98,240.65c-0.68-0.73-1.43-3.22-0.82-4c1.64-2.09,5.23-5.15,9.8-0.32
																									c6.25,6.6-1.67,11.52-1.86,11.34C216.95,247.52,212.31,243.16,209.98,240.65z"/>
																							</g>
																						</g>
																					</g>
																				</g>
																			</g>
																		</g>
																	</g>
																</g>
															</g>
														</g>
													</g>
												</g>
											</g>
										</g>
									</g>
								</g>
							</g>
							<g>
								<g>
									<g>
										<g>
											<g>
												<g>
													<g>
														<g>
															<g>
																<g>
																	<g>
																		<g>
																			<g>
																				<g>
																					<g>
																						<g>
																							<g>
																								<g>
																									<path class="st9" d="M216.64,243.52c0.01-0.05,0.19-0.03,0.47-0.12c0.27-0.09,0.65-0.34,0.88-0.8
																										c0.46-0.92-0.01-2.58-1.1-3.8c-0.55-0.62-1.22-1.07-1.88-1.34c-0.66-0.29-1.29-0.33-1.7-0.06
																										c-0.43,0.25-0.48,0.7-0.38,0.96c0.09,0.27,0.25,0.36,0.23,0.41c0,0.03-0.25,0.02-0.45-0.3
																										c-0.1-0.16-0.17-0.39-0.13-0.66c0.04-0.28,0.21-0.56,0.48-0.77c0.54-0.45,1.44-0.41,2.17-0.11
																										c0.76,0.27,1.52,0.77,2.14,1.46c1.22,1.37,1.71,3.26,1.02,4.44c-0.35,0.56-0.87,0.79-1.22,0.82
																										C216.8,243.67,216.62,243.56,216.64,243.52z"/>
																								</g>
																							</g>
																						</g>
																					</g>
																				</g>
																			</g>
																		</g>
																	</g>
																</g>
															</g>
														</g>
													</g>
												</g>
											</g>
										</g>
									</g>
								</g>
							</g>
						</g>
					</g>
					<g>
						<g>
							<g>
								<path class="st5" d="M209.46,236.43l-0.24,3.31c-13.75-0.93-43.99-6.76-42.24-6.36c0,0,3.43-6.53,9.92-10.31
									c6.49-3.78,19.64-9.94,25.07-3.11C207.42,226.81,209.46,236.43,209.46,236.43z"/>
							</g>
						</g>
					</g>
					<g>
						<g>
							<path class="st8" d="M217.18,229.22c0,0-0.41-0.63-1.54-1.3c-1.11-0.67-3.01-1.27-5.36-1.09c-2.36,0.13-5,1.19-7.71,2.58
								c-2.71,1.41-5.74,2.84-9.14,3.74c-3.38,0.91-6.72,1.37-9.76,1.41c-3.04,0.06-5.78-0.24-8.04-0.65
								c-2.27-0.39-4.05-0.96-5.29-1.33c-0.57-0.2-1.04-0.36-1.41-0.48c-0.32-0.11-0.5-0.15-0.5-0.14
								c-0.01,0.01,0.16,0.09,0.47,0.23c0.36,0.15,0.82,0.34,1.38,0.57c1.22,0.42,3,1.04,5.28,1.48c2.27,0.46,5.03,0.79,8.11,0.75
								c3.07-0.01,6.45-0.47,9.87-1.39c3.43-0.91,6.52-2.39,9.21-3.81c2.7-1.4,5.26-2.47,7.55-2.63c2.28-0.21,4.13,0.31,5.24,0.92
								C216.68,228.69,217.14,229.27,217.18,229.22z"/>
						</g>
					</g>
				</g>
			</g>
			<path class="st9" d="M204.62,255.65c-1.57-0.54-3.36,0.06-4.62,1.15c-0.89,0.77-1.6,1.82-1.75,2.99
				c-0.15,1.17,0.33,2.46,1.33,3.08c1,0.62,2.51,0.4,3.14-0.6c0.3-0.48,0.39-1.06,0.65-1.57c0.32-0.61,0.86-1.07,1.34-1.56
				c0.48-0.49,0.92-1.1,0.95-1.78C205.68,256.67,205.36,255.84,204.62,255.65z"/>
			<g>
				<path class="st5" d="M202.97,261.87c-0.03,0.01-0.11-0.26,0.01-0.71c0.11-0.46,0.5-1.05,1.08-1.61
					c0.55-0.56,1.33-1.19,1.47-2.14c0.07-0.46-0.1-0.93-0.51-1.21c-0.4-0.28-0.97-0.4-1.53-0.39c-1.16,0.04-2.23,0.48-3.04,1.07
					c-0.81,0.6-1.39,1.35-1.69,2.05c-0.31,0.7-0.35,1.34-0.29,1.76c0.06,0.43,0.19,0.65,0.14,0.67c-0.02,0.02-0.21-0.17-0.34-0.62
					c-0.13-0.44-0.15-1.16,0.14-1.94c0.29-0.78,0.88-1.62,1.74-2.3c0.87-0.67,2.03-1.17,3.32-1.21c0.65-0.01,1.31,0.12,1.85,0.5
					c0.55,0.38,0.8,1.11,0.69,1.69c-0.09,0.59-0.4,1.07-0.72,1.43c-0.33,0.37-0.67,0.65-0.97,0.91c-0.6,0.51-0.98,1.01-1.14,1.41
					C203,261.61,203.01,261.87,202.97,261.87z"/>
			</g>
		</g>
		<path class="st6" d="M118.9,225.24c-0.45-0.52-1.29-0.58-1.74-0.05c-0.34,0.41-0.43,1.12,0.41,2.33c1.86,2.68,2.99,6.09,5.68,7.43
			c2.68,1.34,11.05,1.45,15.59,3.82s4.19,8.03,4.49,7.91c0.3-0.12,12.29-5.03,12.29-5.03s-4.6-6.7-6.77-9.17s-5.57-2.27-8.88-2.48
			c-3.3-0.21-13.32,0-16.31-1.14C121.51,228.04,119.73,226.21,118.9,225.24z"/>
		<g>
			<g>
				<path class="st5" d="M261.52,359.95c0,0-91.1-38.14-102.99-13.84l24.89,27.57c0,0,37.46,15.37,49.97,21.25
					c12.5,5.88,29.28,13.47,39.16,0.35c9.88-13.12,10.4-24.1,10.4-24.1L261.52,359.95z"/>
				<path class="st5" d="M157.27,447.32c0,0-2.6-69.71-3.03-81.89c-0.43-12.18,4.22-19.5,4.22-19.5l27.69,22.48
					c0,0,2.49,10.91,2.96,20.07c0.53,10.18-2.83,59.13-2.83,59.13L157.27,447.32z"/>
				<g>
					<path class="st8" d="M179.69,362.84c0.04-0.05,0.74,0.43,1.72,1.37c0.98,0.94,2.22,2.38,3.3,4.17
						c1.08,1.79,1.77,3.56,2.15,4.87c0.38,1.31,0.47,2.15,0.41,2.16c-0.16,0.05-0.87-3.26-3-6.77
						C182.17,365.13,179.57,362.96,179.69,362.84z"/>
				</g>
				<g>
					<g>
						<g>
							<g>
								<g>
									<g>
										<g>
											<g>
												<g>
													<g>
														<g>
															<g>
																<g>
																	<path class="st5" d="M159.02,424.46l0.54,27.04c0,0-27.3,9.62-27.69,14.63l52.46,0.84l0.89-42.16L159.02,424.46z"
																		/>
																</g>
															</g>
														</g>
													</g>
												</g>
											</g>
										</g>
									</g>
								</g>
							</g>
						</g>
						<g>
							<g>
								<g>
									<g>
										<g>
											<g>
												<g>
													<g>
														<g>
															<g>
																<g>
																	<g>
																		<path class="st1" d="M175.81,449.49c1.01,0.29,1.69,1.45,1.44,2.47c-0.25,1.02-1.42,1.73-2.43,1.45
																			c-1.02-0.28-1.88-1.63-1.51-2.62c0.36-0.99,1.78-1.74,2.7-1.23"/>
																	</g>
																</g>
															</g>
														</g>
													</g>
												</g>
											</g>
										</g>
									</g>
								</g>
							</g>
						</g>
						<g>
							<g>
								<g>
									<g>
										<g>
											<g>
												<g>
													<g>
														<g>
															<g>
																<g>
																	<path class="st8" d="M184.32,466.97l-0.08-4.25l-50.27,0.78c0,0-2.35,0.98-2.11,2.63L184.32,466.97z"/>
																</g>
															</g>
														</g>
													</g>
												</g>
											</g>
										</g>
									</g>
								</g>
							</g>
						</g>
						<g>
							<g>
								<g>
									<g>
										<g>
											<g>
												<g>
													<g>
														<g>
															<g>
																<g>
																	<g>
																		<path class="st10" d="M158.71,451.22c0,0.26,1.28,0.39,2.53,1.24c1.27,0.81,1.9,1.93,2.14,1.83
																			c0.24-0.05-0.12-1.58-1.65-2.58C160.21,450.7,158.65,450.98,158.71,451.22z"/>
																	</g>
																</g>
															</g>
														</g>
													</g>
												</g>
											</g>
										</g>
									</g>
								</g>
							</g>
						</g>
						<g>
							<g>
								<g>
									<g>
										<g>
											<g>
												<g>
													<g>
														<g>
															<g>
																<g>
																	<g>
																		<path class="st10" d="M153.17,453.41c-0.06,0.25,1.04,0.7,1.89,1.8c0.88,1.07,1.09,2.25,1.34,2.24
																			c0.24,0.04,0.44-1.45-0.64-2.8C154.68,453.29,153.18,453.16,153.17,453.41z"/>
																	</g>
																</g>
															</g>
														</g>
													</g>
												</g>
											</g>
										</g>
									</g>
								</g>
							</g>
						</g>
						<g>
							<g>
								<g>
									<g>
										<g>
											<g>
												<g>
													<g>
														<g>
															<g>
																<g>
																	<g>
																		<path class="st10" d="M149.94,459.94c0.23,0.06,0.61-1.22-0.03-2.63c-0.63-1.42-1.82-1.99-1.94-1.78
																			c-0.15,0.21,0.62,0.97,1.12,2.14C149.63,458.83,149.68,459.91,149.94,459.94z"/>
																	</g>
																</g>
															</g>
														</g>
													</g>
												</g>
											</g>
										</g>
									</g>
								</g>
							</g>
						</g>
					</g>
				</g>
			</g>
			<g>
				<g>
					<g>
						<g>
							<g>
								<g>
									<g>
										<g>
											<g>
												<g>
													<g>
														<g>
															<g>
																<g>
																	<path class="st5" d="M293.53,462.66l27.01-1.24c0,0,10.33,27.04,15.35,27.3l-0.52-52.46l-42.17,0.21L293.53,462.66
																		z"/>
																</g>
															</g>
														</g>
													</g>
												</g>
											</g>
										</g>
									</g>
								</g>
							</g>
						</g>
						<g>
							<g>
								<g>
									<g>
										<g>
											<g>
												<g>
													<g>
														<g>
															<g>
																<g>
																	<g>
																		<path class="st1" d="M318.1,445.22c0.27-1.02,1.4-1.73,2.43-1.51c1.03,0.23,1.76,1.37,1.51,2.4
																			c-0.25,1.02-1.58,1.92-2.58,1.58c-1-0.34-1.79-1.73-1.3-2.67"/>
																	</g>
																</g>
															</g>
														</g>
													</g>
												</g>
											</g>
										</g>
									</g>
								</g>
							</g>
						</g>
						<g>
							<g>
								<g>
									<g>
										<g>
											<g>
												<g>
													<g>
														<g>
															<g>
																<g>
																	<path class="st8" d="M335.36,436.26l-4.25,0.19l2.09,50.23c0,0,1.04,2.33,2.68,2.04L335.36,436.26z"/>
																</g>
															</g>
														</g>
													</g>
												</g>
											</g>
										</g>
									</g>
								</g>
							</g>
						</g>
						<g>
							<g>
								<g>
									<g>
										<g>
											<g>
												<g>
													<g>
														<g>
															<g>
																<g>
																	<g>
																		<path class="st10" d="M320.28,462.27c0.26-0.01,0.36-1.29,1.17-2.56c0.78-1.29,1.88-1.95,1.78-2.19
																			c-0.05-0.24-1.58,0.16-2.53,1.71C319.72,460.79,320.05,462.33,320.28,462.27z"/>
																	</g>
																</g>
															</g>
														</g>
													</g>
												</g>
											</g>
										</g>
									</g>
								</g>
							</g>
						</g>
						<g>
							<g>
								<g>
									<g>
										<g>
											<g>
												<g>
													<g>
														<g>
															<g>
																<g>
																	<g>
																		<path class="st10" d="M322.61,467.75c0.25,0.06,0.67-1.06,1.75-1.94c1.05-0.91,2.22-1.14,2.2-1.4
																			c0.04-0.24-1.46-0.4-2.78,0.72C322.46,466.24,322.37,467.75,322.61,467.75z"/>
																	</g>
																</g>
															</g>
														</g>
													</g>
												</g>
											</g>
										</g>
									</g>
								</g>
							</g>
						</g>
						<g>
							<g>
								<g>
									<g>
										<g>
											<g>
												<g>
													<g>
														<g>
															<g>
																<g>
																	<g>
																		<path class="st10" d="M329.23,470.81c0.05-0.23-1.23-0.58-2.63,0.09c-1.4,0.66-1.94,1.88-1.73,1.98
																			c0.21,0.14,0.96-0.64,2.11-1.18C328.13,471.15,329.2,471.07,329.23,470.81z"/>
																	</g>
																</g>
															</g>
														</g>
													</g>
												</g>
											</g>
										</g>
									</g>
								</g>
							</g>
						</g>
					</g>
				</g>
				<path class="st5" d="M242.89,367.76c-1.54,1.73-40.7,63.48-27.05,85.93c0,0,1.93,6.05,12.03,9.61l55.07-59.86
					c0,0,24.54-21.44,17.43-45.24c-0.75-2.52-7.96-6.66-10.45-7.95c-10.15-5.3-27.5,6.87-27.5,6.87L242.89,367.76z"/>
				<path class="st5" d="M314.72,435.8c0,0-37.61-2.97-50.83-3.93c-11.64-0.84-13.68,2.8-13.68,2.8l-22.09,28.8l85.51-0.93
					L314.72,435.8z"/>
				<g>
					<path class="st8" d="M239.89,372.92c0.03,0.02-0.18,0.43-0.57,1.17c-0.46,0.82-1.03,1.86-1.72,3.1
						c-1.51,2.71-3.5,6.27-5.69,10.21c-2.2,4-4.15,7.64-5.56,10.28c-0.67,1.25-1.23,2.29-1.68,3.12c-0.4,0.73-0.64,1.13-0.67,1.12
						s0.14-0.45,0.49-1.21c0.35-0.76,0.87-1.86,1.53-3.2c1.33-2.69,3.23-6.36,5.43-10.37c2.2-4,4.29-7.58,5.83-10.14
						c0.77-1.28,1.41-2.31,1.86-3.02C239.59,373.28,239.86,372.9,239.89,372.92z"/>
				</g>
				<g>
					<path class="st8" d="M244.45,440.77c-0.05-0.04,0.46-0.86,1.51-2.04c1.04-1.17,2.65-2.66,4.68-3.95
						c2.03-1.29,4.06-2.11,5.57-2.55c1.51-0.44,2.48-0.55,2.49-0.5c0.05,0.17-3.79,0.93-7.78,3.49
						C246.91,437.74,244.58,440.89,244.45,440.77z"/>
				</g>
			</g>
		</g>
		<g>
			<g>
				<g>
					<path class="st7" d="M227.09,271.34c0,0-1.54,16.74,26.03,17.83c27.56,1.09,41.91,0,41.91,0s0.62,14.85,4.96,18.08
						c4.34,3.23,8.88,5.17,13.21,1.08c4.34-4.09,4.54-23.46,4.96-28.63c0.41-5.17,0.41-16.36-15.69-18.08
						c-16.1-1.72-56.74-5.98-64.14-3.56C225.54,262.23,227.09,271.34,227.09,271.34z"/>
					<g>
						<path class="st5" d="M227.09,271.34c0,0-0.06-0.21-0.08-0.64c-0.03-0.43-0.02-1.07,0.11-1.9c0.11-0.83,0.39-1.85,0.92-2.96
							c0.51-1.12,1.32-2.31,2.46-3.43c0.54-0.59,1.23-1.08,1.93-1.63c0.76-0.46,1.51-1.02,2.4-1.41c1.72-0.89,3.72-1.67,5.99-1.9
							c4.51-0.45,9.65-0.29,15.32-0.05c11.34,0.54,24.8,1.74,39.73,3.27c1.87,0.2,3.75,0.39,5.66,0.59
							c1.91,0.22,3.86,0.48,5.77,1.03c0.49,0.1,0.95,0.29,1.42,0.46c0.47,0.18,0.94,0.34,1.4,0.54c0.89,0.48,1.82,0.88,2.62,1.52
							c1.67,1.17,3.1,2.73,4.06,4.58c0.97,1.85,1.46,3.92,1.63,6.01c0.1,1.05,0.08,2.1,0.05,3.16c-0.07,1.04-0.13,2.09-0.2,3.14
							c-0.21,4.21-0.42,8.49-0.89,12.8c-0.23,2.14-0.52,4.26-0.94,6.35c-0.44,2.08-0.93,4.16-1.93,6.07
							c-0.27,0.47-0.55,0.93-0.93,1.33c-0.37,0.41-0.79,0.73-1.21,1.06c-0.85,0.65-1.83,1.12-2.87,1.37
							c-2.1,0.51-4.28-0.05-6.09-0.98c-0.92-0.46-1.8-0.99-2.62-1.57c-0.41-0.3-0.84-0.55-1.21-0.92l-0.57-0.54l-0.45-0.63
							c-1.14-1.71-1.72-3.64-2.22-5.53c-0.93-3.81-1.36-7.62-1.58-11.35l0.26,0.23c-11.32,0.64-21.79,0.5-31.13,0.3
							c-2.33-0.07-4.6-0.14-6.79-0.2c-2.19-0.08-4.3-0.14-6.34-0.34c-4.08-0.23-7.79-1.08-11.01-2.16
							c-0.79-0.31-1.57-0.62-2.32-0.92c-0.72-0.36-1.41-0.75-2.08-1.11c-0.69-0.33-1.25-0.83-1.85-1.23
							c-0.29-0.21-0.57-0.42-0.85-0.62c-0.25-0.24-0.5-0.47-0.74-0.7c-1.96-1.82-3.21-3.8-3.87-5.53c-0.68-1.73-0.9-3.15-0.98-4.1
							C227.02,271.83,227.09,271.34,227.09,271.34c0.01,0,0,0.12,0.01,0.37c0,0.24,0.03,0.6,0.06,1.08
							c0.11,0.94,0.35,2.35,1.05,4.05c0.68,1.7,1.94,3.64,3.88,5.42c0.24,0.23,0.49,0.45,0.74,0.69c0.28,0.2,0.56,0.4,0.85,0.61
							c0.59,0.39,1.14,0.88,1.83,1.2c0.67,0.35,1.35,0.73,2.06,1.09c0.75,0.29,1.51,0.59,2.3,0.89c3.2,1.05,6.89,1.87,10.94,2.09
							c2.02,0.19,4.13,0.24,6.32,0.31c2.19,0.06,4.45,0.12,6.78,0.18c9.33,0.17,19.81,0.28,31.08-0.37l0.24-0.01l0.01,0.24
							c0.22,3.69,0.65,7.49,1.58,11.25c0.48,1.86,1.07,3.76,2.15,5.36l0.42,0.59l0.51,0.49c0.33,0.33,0.78,0.6,1.17,0.89
							c0.82,0.57,1.67,1.08,2.56,1.53c1.76,0.9,3.8,1.41,5.74,0.94c0.96-0.23,1.88-0.67,2.68-1.28c0.39-0.31,0.81-0.63,1.13-0.99
							c0.34-0.35,0.6-0.79,0.85-1.23c0.95-1.81,1.44-3.87,1.88-5.92c0.41-2.07,0.7-4.18,0.93-6.3c0.46-4.29,0.67-8.56,0.89-12.77
							c0.07-1.05,0.13-2.1,0.2-3.14c0.04-1.04,0.05-2.07-0.05-3.09c-0.16-2.04-0.65-4.05-1.57-5.82c-0.92-1.78-2.29-3.28-3.9-4.41
							c-0.77-0.61-1.68-1.01-2.54-1.47c-0.45-0.19-0.91-0.35-1.37-0.53c-0.46-0.17-0.91-0.36-1.38-0.45
							c-1.87-0.54-3.78-0.8-5.68-1.02c-1.91-0.2-3.8-0.4-5.66-0.6c-14.92-1.56-28.37-2.79-39.7-3.38
							c-5.66-0.26-10.8-0.45-15.27-0.03c-2.22,0.22-4.2,0.97-5.91,1.83c-0.89,0.38-1.63,0.93-2.38,1.37
							c-0.69,0.54-1.38,1.01-1.91,1.59c-1.14,1.09-1.95,2.25-2.47,3.35c-0.53,1.09-0.82,2.09-0.95,2.91
							c-0.15,0.82-0.17,1.46-0.16,1.88c0,0.21,0.01,0.37,0.02,0.48C227.09,271.28,227.1,271.34,227.09,271.34z"/>
					</g>
				</g>
				<g>
					<path class="st5" d="M309.36,283.64c0.03,0.06-0.67,0.58-1.9,1.29c-1.23,0.71-2.99,1.59-5.02,2.34
						c-2.03,0.75-3.94,1.22-5.34,1.47c-1.4,0.25-2.27,0.3-2.28,0.24c-0.03-0.16,3.43-0.71,7.44-2.2
						C306.29,285.31,309.28,283.5,309.36,283.64z"/>
				</g>
			</g>
			<g>
				<g class="st11">
					<path d="M243.07,368.1l-2.82-0.61c3.19,4.56,8.92,6.56,14.4,7.53c11.96,2.13,24.55,0.6,35.65-4.33c2.26-1,4.49-2.17,6.33-3.82
						c1.84-1.66,3.27-3.87,3.59-6.33C281.81,366.37,262.37,368.94,243.07,368.1z"/>
				</g>
				<path class="st7" d="M216.61,294.21c0,0.47,4.19,20.88,7.38,25.99c7.03,11.28,15.02,16.09,15.02,16.09l0.13,23.65
					c0,0-2.49,2.47-0.62,5.13c1.87,2.66,7.11,6.44,26.45,7.85c19.33,1.4,38.81-9.89,35.77-13.61c-0.86-1.05-3.03-28.23-9.72-47.67
					c-5.57-16.18-12.89-30.1-13.36-30.1s-13.23-17.36-24.76-21.42c-11.54-4.05-25.5,0-25.5,0l-11.79,25.13L216.61,294.21z"/>
				<path class="st11" d="M250.02,288.97c0.06,0,24.34,4.99,33.61,4.18l-1.61-3.48L250.02,288.97z"/>
				<g>
					<path class="st5" d="M259.82,341.16c-0.02,0.07-1.08-0.22-2.78-0.67c-1.7-0.46-4.05-1.06-6.67-1.64
						c-2.62-0.57-5.01-1-6.75-1.29c-1.73-0.29-2.81-0.47-2.8-0.55c0.01-0.07,1.1-0.02,2.86,0.18c1.76,0.2,4.17,0.58,6.81,1.15
						c2.63,0.58,4.99,1.24,6.67,1.79C258.83,340.68,259.84,341.09,259.82,341.16z"/>
				</g>
				<g class="st11">
					<path d="M242.82,337.37c5.06,3.74,11.25,5.93,17.53,6.22c0.23,0.01,0.46,0.02,0.66-0.09c0.42-0.22,0.46-0.86,0.2-1.26
						c-0.26-0.4-0.72-0.62-1.16-0.81c-5.47-2.41-11.4-3.76-17.38-3.97"/>
				</g>
			</g>
		</g>
		<g>
			<g>
				<path class="st5" d="M147.05,288.49c0.01,0.01-0.09,0.15-0.38,0.3c-0.28,0.14-0.78,0.27-1.38,0.07c-0.6-0.16-1.25-0.87-1.16-1.8
					c0.03-0.45,0.21-0.94,0.62-1.29c0.4-0.34,0.91-0.5,1.38-0.7c0.47-0.19,0.93-0.49,0.94-0.98c0.03-0.46-0.44-0.88-0.96-1.11
					c-0.52-0.26-1.15-0.26-1.83-0.42c-0.33-0.08-0.68-0.18-1.01-0.39c-0.32-0.2-0.62-0.54-0.71-0.94c-0.12-0.4-0.02-0.85,0.17-1.2
					c0.19-0.35,0.46-0.64,0.74-0.9c0.58-0.53,1.25-0.85,1.69-1.4c0.23-0.27,0.41-0.57,0.47-0.88c0.05-0.31-0.06-0.62-0.28-0.84
					c-0.47-0.45-1.31-0.49-2.11-0.66c-0.4-0.09-0.84-0.2-1.22-0.49c-0.38-0.29-0.6-0.8-0.54-1.27c0.15-0.95,0.85-1.52,1.44-1.99
					c0.58-0.46,1.14-0.97,1.19-1.58c0.06-0.62-0.45-1.11-1.05-1.35c-0.61-0.27-1.24-0.34-1.93-0.47c-0.66-0.15-1.33-0.36-1.85-0.83
					c-0.55-0.46-0.67-1.3-0.37-1.88c0.3-0.58,0.78-0.92,1.19-1.26c0.41-0.33,0.79-0.64,1.05-1c0.27-0.35,0.37-0.77,0.36-1.17
					c-0.01-0.8-0.48-1.41-0.98-1.66c-0.5-0.27-0.97-0.28-1.26-0.26c-0.3,0.04-0.46,0.1-0.46,0.08c-0.01-0.01,0.13-0.11,0.45-0.18
					c0.31-0.06,0.81-0.09,1.37,0.18c0.56,0.25,1.14,0.92,1.18,1.83c0.02,0.44-0.08,0.95-0.38,1.37c-0.29,0.42-0.69,0.76-1.09,1.1
					c-0.4,0.34-0.83,0.69-1.06,1.15c-0.21,0.45-0.12,1.04,0.3,1.39c0.41,0.37,1.02,0.57,1.64,0.69c0.61,0.11,1.36,0.18,2.03,0.47
					c0.34,0.14,0.68,0.34,0.96,0.65c0.28,0.3,0.43,0.75,0.4,1.18c-0.1,0.91-0.8,1.46-1.37,1.94c-0.58,0.44-1.16,1-1.24,1.64
					c-0.04,0.31,0.1,0.62,0.35,0.81c0.25,0.2,0.62,0.31,1,0.39c0.75,0.18,1.64,0.15,2.36,0.8c0.34,0.33,0.51,0.83,0.42,1.29
					c-0.09,0.46-0.33,0.82-0.59,1.13c-0.53,0.63-1.25,0.98-1.75,1.44c-0.52,0.45-0.94,1.05-0.78,1.6c0.13,0.57,0.75,0.86,1.36,1
					c0.31,0.08,0.63,0.13,0.94,0.18c0.34,0.05,0.66,0.16,0.96,0.3c0.3,0.14,0.58,0.32,0.81,0.57c0.23,0.24,0.39,0.59,0.37,0.95
					c-0.01,0.35-0.2,0.66-0.44,0.87c-0.24,0.21-0.51,0.32-0.76,0.43c-0.5,0.2-0.98,0.34-1.31,0.62c-0.33,0.27-0.5,0.68-0.54,1.06
					c-0.1,0.8,0.42,1.41,0.94,1.59c0.53,0.2,1,0.12,1.27,0.02C146.91,288.59,147.04,288.47,147.05,288.49z"/>
			</g>
			<g>
				<path class="st5" d="M212.07,337.9c0.01-0.01,0.11,0.14,0.15,0.46c0.03,0.31-0.01,0.83-0.4,1.33c-0.35,0.5-1.25,0.88-2.09,0.48
					c-0.41-0.18-0.81-0.52-1-1.02c-0.18-0.5-0.16-1.03-0.19-1.54c-0.02-0.51-0.14-1.04-0.6-1.22c-0.42-0.19-0.98,0.11-1.37,0.52
					c-0.42,0.4-0.64,0.99-1.02,1.58c-0.19,0.29-0.41,0.58-0.71,0.81c-0.29,0.24-0.72,0.4-1.13,0.35c-0.42-0.03-0.81-0.27-1.07-0.57
					c-0.26-0.3-0.45-0.65-0.59-1c-0.3-0.72-0.37-1.46-0.74-2.07c-0.17-0.31-0.39-0.58-0.67-0.74c-0.27-0.16-0.6-0.16-0.88-0.02
					c-0.58,0.29-0.91,1.06-1.34,1.75c-0.22,0.35-0.47,0.72-0.88,0.98c-0.4,0.26-0.95,0.29-1.38,0.07c-0.84-0.46-1.14-1.32-1.38-2.03
					c-0.23-0.7-0.52-1.41-1.08-1.66c-0.56-0.27-1.2,0.04-1.63,0.53c-0.47,0.48-0.74,1.05-1.1,1.66c-0.36,0.57-0.79,1.12-1.41,1.45
					c-0.62,0.36-1.45,0.19-1.9-0.29c-0.44-0.48-0.6-1.05-0.78-1.54c-0.17-0.5-0.33-0.97-0.58-1.33c-0.24-0.37-0.6-0.61-0.97-0.74
					c-0.76-0.27-1.49-0.03-1.89,0.35c-0.43,0.37-0.6,0.81-0.68,1.1c-0.07,0.3-0.06,0.46-0.09,0.46c-0.01,0-0.06-0.16-0.02-0.48
					c0.05-0.31,0.19-0.79,0.64-1.23c0.43-0.44,1.25-0.76,2.12-0.48c0.42,0.13,0.86,0.4,1.15,0.83c0.3,0.41,0.48,0.91,0.66,1.4
					c0.18,0.49,0.36,1.02,0.72,1.39c0.35,0.35,0.94,0.47,1.41,0.19c0.49-0.26,0.88-0.77,1.21-1.31c0.31-0.54,0.63-1.22,1.14-1.75
					c0.25-0.27,0.55-0.53,0.94-0.68c0.38-0.16,0.85-0.15,1.25,0.03c0.82,0.4,1.1,1.25,1.35,1.95c0.22,0.7,0.55,1.43,1.12,1.73
					c0.28,0.14,0.62,0.12,0.88-0.05c0.27-0.17,0.5-0.48,0.7-0.81c0.42-0.64,0.7-1.49,1.56-1.95c0.42-0.21,0.95-0.2,1.36,0.04
					c0.4,0.24,0.66,0.59,0.86,0.94c0.41,0.71,0.5,1.51,0.76,2.14c0.24,0.64,0.66,1.24,1.24,1.28c0.58,0.07,1.07-0.41,1.41-0.94
					c0.18-0.26,0.33-0.55,0.49-0.82c0.16-0.3,0.37-0.57,0.61-0.8c0.23-0.23,0.5-0.44,0.82-0.57c0.31-0.13,0.69-0.17,1.02-0.02
					c0.32,0.13,0.56,0.42,0.67,0.71c0.12,0.3,0.13,0.59,0.14,0.86c0.02,0.54-0.01,1.04,0.13,1.44c0.14,0.4,0.47,0.7,0.81,0.87
					c0.72,0.36,1.47,0.09,1.81-0.34c0.37-0.43,0.45-0.9,0.45-1.19C212.11,338.06,212.05,337.9,212.07,337.9z"/>
			</g>
			<g>
				<path class="st5" d="M288.2,402.62c0-0.01,0.18-0.01,0.47,0.13c0.28,0.14,0.68,0.47,0.88,1.07c0.23,0.57,0.04,1.52-0.76,2.01
					c-0.38,0.24-0.88,0.39-1.4,0.27c-0.52-0.12-0.94-0.44-1.39-0.69c-0.43-0.27-0.95-0.46-1.35-0.17c-0.39,0.25-0.45,0.88-0.32,1.43
					c0.1,0.57,0.48,1.08,0.75,1.72c0.13,0.32,0.26,0.66,0.29,1.04c0.04,0.38-0.06,0.82-0.33,1.13c-0.25,0.34-0.67,0.52-1.07,0.58
					c-0.4,0.05-0.79,0.01-1.16-0.06c-0.77-0.15-1.42-0.5-2.14-0.53c-0.35-0.03-0.7,0.01-0.99,0.15c-0.28,0.14-0.46,0.41-0.51,0.72
					c-0.08,0.64,0.38,1.35,0.72,2.08c0.17,0.38,0.34,0.79,0.33,1.27c-0.01,0.48-0.28,0.95-0.7,1.19c-0.85,0.45-1.73,0.22-2.46,0.03
					c-0.71-0.19-1.46-0.34-1.98-0.02c-0.54,0.32-0.63,1.02-0.46,1.65c0.15,0.66,0.47,1.2,0.78,1.83c0.28,0.62,0.5,1.28,0.44,1.97
					c-0.05,0.71-0.64,1.32-1.29,1.42c-0.65,0.1-1.21-0.08-1.72-0.2c-0.51-0.13-0.99-0.26-1.43-0.25c-0.44-0.01-0.84,0.16-1.15,0.4
					c-0.64,0.48-0.84,1.22-0.75,1.77c0.08,0.56,0.35,0.95,0.55,1.17c0.21,0.22,0.35,0.31,0.34,0.33c-0.01,0.01-0.17-0.04-0.41-0.25
					c-0.23-0.21-0.55-0.6-0.67-1.21c-0.13-0.6,0.06-1.46,0.77-2.03c0.34-0.28,0.81-0.5,1.33-0.5c0.51-0.02,1.02,0.1,1.53,0.22
					c0.51,0.12,1.05,0.26,1.55,0.17c0.49-0.1,0.91-0.52,0.94-1.07c0.05-0.55-0.15-1.16-0.42-1.73c-0.28-0.55-0.67-1.2-0.83-1.91
					c-0.09-0.36-0.13-0.75-0.04-1.16c0.07-0.41,0.35-0.79,0.71-1.02c0.79-0.46,1.65-0.23,2.37-0.05c0.7,0.2,1.49,0.33,2.06,0.02
					c0.27-0.15,0.44-0.45,0.44-0.77c0.01-0.32-0.12-0.68-0.28-1.03c-0.3-0.71-0.85-1.41-0.76-2.38c0.06-0.47,0.36-0.9,0.79-1.11
					c0.42-0.2,0.86-0.22,1.26-0.2c0.82,0.05,1.53,0.42,2.2,0.55c0.67,0.15,1.4,0.13,1.75-0.33c0.38-0.45,0.24-1.12,0-1.69
					c-0.12-0.29-0.27-0.58-0.42-0.86c-0.16-0.3-0.27-0.62-0.33-0.95c-0.07-0.32-0.09-0.66-0.02-0.99c0.06-0.33,0.24-0.67,0.54-0.86
					c0.29-0.2,0.65-0.23,0.96-0.16c0.31,0.07,0.56,0.22,0.79,0.35c0.46,0.28,0.86,0.58,1.28,0.69c0.41,0.1,0.84,0,1.17-0.2
					c0.7-0.4,0.88-1.17,0.72-1.7c-0.15-0.54-0.5-0.87-0.74-1.04C288.36,402.68,288.2,402.64,288.2,402.62z"/>
			</g>
			<g>
				<path class="st5" d="M291.54,294.1c0.01,0,0.03,0.15-0.03,0.43c-0.06,0.28-0.19,0.69-0.52,1.13c-0.33,0.43-0.88,0.89-1.66,1.06
					c-0.76,0.16-1.75,0.03-2.53-0.63c-0.38-0.32-0.7-0.71-1.05-1.07c-0.35-0.35-0.75-0.68-1.24-0.7c-0.48-0.03-0.95,0.24-1.33,0.65
					c-0.4,0.4-0.69,0.91-1.09,1.43c-0.4,0.49-0.9,1.03-1.66,1.21c-0.79,0.18-1.55-0.35-1.94-0.93c-0.43-0.57-0.72-1.21-1.14-1.72
					c-0.38-0.53-1.03-0.72-1.54-0.38c-0.52,0.33-0.86,0.99-1.28,1.56c-0.21,0.29-0.45,0.59-0.77,0.82
					c-0.31,0.23-0.71,0.38-1.11,0.37c-0.82-0.04-1.41-0.55-1.89-1.01c-0.49-0.48-0.86-0.97-1.35-1.3c-0.47-0.33-1.03-0.53-1.49-0.33
					c-0.46,0.19-0.73,0.68-0.93,1.18c-0.21,0.5-0.38,1.04-0.76,1.48c-0.36,0.46-1.01,0.65-1.52,0.52c-1.04-0.25-1.59-1.06-2.04-1.62
					c-0.46-0.59-0.92-1.02-1.41-1.16c-0.48-0.16-0.89-0.08-1.13,0.04c-0.24,0.12-0.32,0.25-0.34,0.23c-0.01,0,0.05-0.16,0.29-0.33
					c0.24-0.16,0.7-0.28,1.24-0.14c0.56,0.12,1.1,0.59,1.58,1.17c0.48,0.56,1.03,1.27,1.89,1.45c0.41,0.08,0.86-0.05,1.14-0.42
					c0.29-0.36,0.46-0.86,0.66-1.39c0.2-0.51,0.49-1.15,1.15-1.44c0.67-0.3,1.41-0.01,1.94,0.35c0.56,0.37,0.98,0.9,1.43,1.34
					c0.45,0.43,0.98,0.84,1.55,0.85c0.58,0.01,1.06-0.42,1.45-0.98c0.41-0.54,0.72-1.23,1.43-1.7c0.36-0.23,0.82-0.3,1.23-0.19
					c0.42,0.11,0.75,0.4,0.98,0.69c0.47,0.59,0.76,1.23,1.14,1.74c0.37,0.52,0.89,0.86,1.44,0.75c0.54-0.11,1.01-0.56,1.38-1.02
					c0.37-0.46,0.7-1.02,1.14-1.45c0.42-0.44,1.03-0.82,1.69-0.76c0.66,0.05,1.14,0.48,1.49,0.85c0.36,0.39,0.66,0.77,1,1.07
					c0.67,0.59,1.55,0.74,2.24,0.62c0.71-0.12,1.23-0.51,1.56-0.9C291.5,294.72,291.48,294.07,291.54,294.1z"/>
			</g>
		</g>
	</g>
</g>
<g id="Elements">
	<g>
		
			<rect x="234.95" y="166.34" transform="matrix(0.94 0.3413 -0.3413 0.94 81.5641 -93.9986)" class="st8" width="146.03" height="36.99"/>
		<g>
			
				<rect x="155.12" y="65.15" transform="matrix(0.3413 -0.94 0.94 0.3413 17.5329 264.3137)" class="st7" width="84.46" height="108.99"/>
			<g>
				<path class="st5" d="M234.16,177.94c0,0,0.17-0.51,0.51-1.47c0.35-0.97,0.85-2.39,1.51-4.24c1.34-3.72,3.29-9.16,5.78-16.09
					c5-13.86,12.16-33.69,20.81-57.65l0.13,0.28c-29.13-10.56-64.43-23.36-102.46-37.15l-0.01,0l0.33-0.16
					c-10.39,28.6-20.23,55.66-28.85,79.38l-0.14-0.3c30.36,11.07,55.93,20.4,73.92,26.96c9,3.3,16.1,5.9,20.97,7.68
					c2.42,0.89,4.29,1.58,5.56,2.05c0.62,0.23,1.1,0.41,1.43,0.53C233.99,177.87,234.16,177.94,234.16,177.94s-0.16-0.05-0.47-0.16
					c-0.33-0.12-0.8-0.28-1.42-0.5c-1.27-0.45-3.12-1.12-5.54-1.98c-4.86-1.75-11.96-4.31-20.96-7.54
					c-18.05-6.52-43.69-15.79-74.14-26.79l-0.22-0.08l0.08-0.22c8.6-23.72,18.42-50.79,28.8-79.4l0.09-0.24l0.24,0.09l0.01,0
					c38.01,13.82,73.3,26.65,102.43,37.23l0.2,0.07l-0.07,0.2c-8.76,23.98-16,43.83-21.07,57.7c-2.53,6.9-4.51,12.31-5.87,16.01
					c-0.68,1.83-1.19,3.23-1.55,4.19C234.35,177.47,234.16,177.94,234.16,177.94z"/>
			</g>
		</g>
		<g>
			
				<rect x="260.54" y="81.11" transform="matrix(0.3413 -0.94 0.94 0.3413 81.598 360.4766)" class="st7" width="74.88" height="81.81"/>
			<g>
				<path class="st5" d="M323.66,171.17c0,0,0.15-0.46,0.45-1.32c0.31-0.87,0.76-2.14,1.35-3.79c1.19-3.32,2.93-8.16,5.14-14.32
					c4.44-12.31,10.78-29.89,18.41-51.04l0.13,0.28c-22.19-8.04-48.62-17.63-76.91-27.88l-0.01,0l0.33-0.16
					c-9.32,25.64-18.08,49.74-25.58,70.38l-0.14-0.29c22.94,8.38,42.12,15.39,55.59,20.3c6.73,2.47,12.03,4.42,15.66,5.75
					c1.8,0.67,3.19,1.18,4.14,1.53c0.46,0.17,0.81,0.31,1.07,0.4C323.53,171.12,323.66,171.17,323.66,171.17s-0.12-0.03-0.35-0.11
					c-0.25-0.09-0.6-0.21-1.05-0.37c-0.95-0.34-2.33-0.83-4.12-1.47c-3.63-1.3-8.93-3.2-15.65-5.62
					c-13.52-4.88-32.78-11.83-55.8-20.14l-0.21-0.08l0.08-0.22c7.48-20.64,16.23-44.75,25.52-70.4l0.09-0.24l0.24,0.09l0.01,0
					c28.28,10.28,54.7,19.89,76.88,27.95l0.21,0.08l-0.08,0.21c-7.74,21.17-14.17,38.77-18.67,51.09
					c-2.25,6.12-4.02,10.93-5.23,14.23c-0.6,1.62-1.06,2.87-1.38,3.73C323.83,170.76,323.66,171.17,323.66,171.17z"/>
			</g>
		</g>
		
			<ellipse transform="matrix(0.7513 -0.66 0.66 0.7513 -39.3747 100.6877)" class="st8" cx="113.91" cy="102.59" rx="29.97" ry="29.97"/>
		
			<rect x="179.87" y="142.72" transform="matrix(0.94 0.3413 -0.3413 0.94 64.3979 -58.7753)" class="st8" width="38.78" height="21.86"/>
	</g>
	<g>
		
			<rect x="390.18" y="154.68" transform="matrix(0.5471 -0.8371 0.8371 0.5471 21.5442 422.3847)" class="st7" width="21.86" height="73.2"/>
		<g>
			<path class="st5" d="M425.76,220.46c0-0.01,0.07-0.12,0.2-0.34c0.15-0.23,0.34-0.54,0.6-0.95c0.54-0.84,1.32-2.06,2.32-3.62
				c2.04-3.15,4.99-7.73,8.7-13.48l0.05,0.23c-14.35-9.36-36.51-23.8-61.33-39.97c0.16-0.03-0.36,0.07,0.36-0.08l0,0l-0.01,0.01
				l-0.01,0.02l-0.02,0.04l-0.05,0.07l-0.1,0.15l-0.19,0.3l-0.39,0.59l-0.77,1.18c-0.51,0.79-1.02,1.57-1.53,2.35
				c-1.02,1.56-2.03,3.1-3.03,4.63c-2,3.06-3.96,6.05-5.86,8.96l-0.07-0.35c17.52,11.51,32.78,21.53,43.69,28.69
				c5.44,3.59,9.79,6.47,12.81,8.46c1.49,0.99,2.64,1.76,3.44,2.29c0.38,0.26,0.67,0.46,0.89,0.6
				C425.66,220.38,425.76,220.45,425.76,220.46c0,0.01-0.1-0.05-0.3-0.17c-0.22-0.14-0.51-0.32-0.88-0.56
				c-0.8-0.51-1.95-1.25-3.43-2.2c-3.02-1.95-7.38-4.78-12.84-8.3c-10.97-7.14-26.34-17.13-43.96-28.6l-0.21-0.14l0.14-0.21
				c1.9-2.91,3.86-5.91,5.85-8.96c1-1.53,2.01-3.07,3.03-4.63c0.51-0.78,1.02-1.56,1.53-2.35l0.77-1.18l0.39-0.59l0.19-0.3l0.1-0.15
				l0.05-0.07l0.02-0.04l0.01-0.02l0.01-0.01l0,0c0.72-0.15,0.2-0.04,0.36-0.07c24.77,16.23,46.89,30.73,61.22,40.13l0.14,0.09
				l-0.09,0.14c-3.81,5.75-6.83,10.32-8.91,13.47c-1.02,1.53-1.82,2.72-2.37,3.55c-0.26,0.38-0.46,0.68-0.61,0.9
				C425.84,220.37,425.77,220.46,425.76,220.46z"/>
		</g>
	</g>
</g>
<g id="Falling_ball">
	<g>
		
			<ellipse transform="matrix(0.9175 -0.3977 0.3977 0.9175 -5.971 102.6475)" class="st8" cx="244.45" cy="65.72" rx="13.78" ry="13.78"/>
		<g>
			<path class="st5" d="M247.94,48.53c-0.14,0-0.26-5.73-0.26-12.8c0-7.07,0.12-12.8,0.26-12.8s0.26,5.73,0.26,12.8
				C248.2,42.79,248.08,48.53,247.94,48.53z"/>
		</g>
		<g>
			<path class="st5" d="M242.1,39.59c-0.14,0-0.26-4.36-0.26-9.74c0-5.38,0.12-9.74,0.26-9.74c0.14,0,0.26,4.36,0.26,9.74
				C242.36,35.23,242.25,39.59,242.1,39.59z"/>
		</g>
	</g>
</g>
<g id="Speech_Bubble">
	<g>
		<g>
			<g>
				<g>
					<g>
						<g>
							<g>
								<g>
									<g>
										<g>
											<g>
												<g>
													<g>
														<g>
															<g>
																<g>
																	<polygon class="st10" points="268.26,183.65 262.32,168.73 253.15,181.85 239.11,172.24 241.32,190.61 
																		227.09,194.16 240.88,205.66 227.48,220.44 245.95,214.7 254.84,230.62 262.82,216.75 279.86,221.21 273.6,206.29 
																		288.48,199.91 275.37,194.74 283.02,181.09 																	"/>
																</g>
															</g>
															<g>
																<g>
																	<g>
																		<path class="st5" d="M268.26,183.65c0,0,0.33-0.07,0.98-0.18c0.65-0.12,1.6-0.29,2.85-0.51
																			c2.5-0.44,6.18-1.09,10.92-1.93l0.13-0.02l-0.07,0.12c-2.09,3.75-4.67,8.36-7.63,13.66l-0.05-0.13
																			c3.93,1.54,8.35,3.28,13.11,5.15l0.24,0.09l-0.24,0.1c-4.57,1.96-9.58,4.12-14.88,6.39l0.06-0.15
																			c1.99,4.74,4.09,9.73,6.27,14.91l0.1,0.24l-0.25-0.07c-5.42-1.42-11.14-2.91-17.04-4.45l0.15-0.06
																			c-2.54,4.41-5.23,9.09-7.98,13.87l-0.12,0.21l-0.12-0.21c-2.84-5.09-5.84-10.46-8.88-15.92l0.17,0.07
																			c-1.59,0.5-3.31,1.03-5.04,1.57c-4.54,1.41-9.02,2.8-13.43,4.17l-0.49,0.15l0.35-0.38
																			c4.58-5.05,9.06-9.99,13.4-14.78l0.01,0.2c-4.75-3.96-9.35-7.8-13.79-11.51l-0.2-0.16l0.25-0.06
																			c4.92-1.22,9.67-2.41,14.23-3.54l-0.09,0.13c-0.78-6.52-1.51-12.66-2.2-18.37l-0.03-0.24l0.2,0.14
																			c5.16,3.54,9.83,6.74,14.03,9.63l-0.13,0.02c3.62-5.16,6.66-9.5,9.18-13.1l0.07-0.1l0.05,0.11
																			c1.91,4.85,3.38,8.57,4.38,11.09c0.49,1.26,0.87,2.22,1.12,2.87C268.13,183.31,268.26,183.65,268.26,183.65
																			s-0.14-0.32-0.39-0.95c-0.26-0.64-0.64-1.59-1.15-2.84c-1.01-2.52-2.51-6.25-4.46-11.1l0.12,0.01
																			c-2.51,3.61-5.54,7.96-9.14,13.13l-0.05,0.07l-0.07-0.05c-4.21-2.87-8.88-6.07-14.05-9.6l0.17-0.1
																			c0.69,5.71,1.43,11.85,2.22,18.37l0.01,0.11l-0.11,0.03c-4.56,1.14-9.31,2.33-14.23,3.56l0.05-0.23
																			c4.44,3.7,9.05,7.54,13.8,11.5l0.11,0.09l-0.1,0.11c-4.34,4.79-8.81,9.73-13.4,14.78l-0.15-0.23
																			c4.41-1.37,8.89-2.76,13.43-4.18c1.73-0.54,3.44-1.07,5.04-1.57l0.11-0.03l0.06,0.1
																			c3.05,5.46,6.04,10.83,8.88,15.92l-0.24,0c2.75-4.78,5.45-9.46,7.99-13.87l0.05-0.09l0.1,0.03
																			c5.9,1.55,11.61,3.04,17.04,4.46l-0.15,0.17c-2.17-5.19-4.26-10.17-6.25-14.92l-0.05-0.11l0.11-0.05
																			c5.3-2.27,10.32-4.41,14.89-6.37l0,0.19c-4.76-1.88-9.18-3.63-13.1-5.18l-0.1-0.04l0.05-0.09
																			c2.98-5.29,5.57-9.9,7.68-13.64l0.07,0.1c-4.76,0.81-8.46,1.44-10.97,1.86c-1.25,0.21-2.2,0.37-2.84,0.48
																			C268.58,183.6,268.26,183.65,268.26,183.65z"/>
																	</g>
																</g>
															</g>
														</g>
													</g>
												</g>
											</g>
										</g>
									</g>
								</g>
							</g>
						</g>
					</g>
				</g>
			</g>
		</g>
		<g>
			<g>
				<g>
					<g>
						<g>
							<path class="st7" d="M260.78,191.08l-1.25,11.69c-0.1,0.96-0.9,1.69-1.86,1.7l0,0c-1.01,0.02-1.86-0.77-1.93-1.78
								l-0.79-11.84c-0.06-0.9,0.68-1.64,1.58-1.59l2.86,0.16C260.23,189.48,260.87,190.23,260.78,191.08z"/>
						</g>
					</g>
				</g>
			</g>
			<g>
				<g>
					<g>
						<g>
							<path class="st7" d="M254.27,210.92c0.43,1.52,2.02,2.4,3.54,1.97c1.52-0.43,2.4-2.02,1.97-3.54
								c-0.43-1.52-2.02-2.4-3.54-1.97C254.72,207.82,253.84,209.4,254.27,210.92z"/>
						</g>
					</g>
				</g>
			</g>
		</g>
	</g>
</g>
</svg>
