<?xml version="1.0" encoding="utf-8"?>
<!-- Generator: Adobe Illustrator 25.3.0, SVG Export Plug-In . SVG Version: 6.00 Build 0)  -->
<svg version="1.1" xmlns="http://www.w3.org/2000/svg" xmlns:xlink="http://www.w3.org/1999/xlink" x="0px" y="0px"
	 viewBox="0 0 500 500" style="enable-background:new 0 0 500 500;" xml:space="preserve">
<style type="text/css">
	.st0{display:none;}
	.st1{display:inline;fill:#F5F5F5;}
	.st2{fill:#263238;}
	.st3{fill:#455A64;}
	.st4{fill:#FF725E;}
	.st5{fill:#FFFFFF;}
	.st6{opacity:0.3;}
	.st7{fill:#AE7461;}
	.st8{opacity:0.6;}
	.st9{fill:#6F4439;}
</style>
<g id="Background_Complete">
</g>
<g id="Background_Simple" class="st0">
	<path class="st1" d="M314.68,65.1l-1.48-2.44c-12.47-20.55-35.02-32.94-58.79-31.43c-3.06,0.19-6.1,0.61-9.1,1.25
		c-21.61,4.63-40.42,20.97-48.21,41.9c-4.58,12.31-5.87,26.48-14.56,36.25c-11.32,12.72-30.54,13.12-47.44,12.59
		c-16.9-0.53-36.13-0.08-47.4,12.69c-7.06,8-9.3,19.37-8.73,30.07c1.51,28.35,21.26,53.7,46.38,66.3
		c25.12,12.6,54.7,13.73,82.2,8.19c38.52-7.76,75.15-29.09,97.16-62.02S332.29,100.65,314.68,65.1z"/>
	<circle class="st1" cx="437.73" cy="329.71" r="36.11"/>
</g>
<g id="Floor">
	<g>
		<path class="st2" d="M457.38,463.95c0,0.14-94.81,0.26-211.73,0.26c-116.97,0-211.75-0.12-211.75-0.26s94.79-0.26,211.75-0.26
			C362.57,463.69,457.38,463.81,457.38,463.95z"/>
	</g>
</g>
<g id="Plant">
	<g>
		<g>
			<g>
				<path class="st3" d="M333.95,404.56c2.81,1.01,4.98,3.41,6.16,6.15c1.19,2.74,1.47,5.8,1.32,8.78
					c-0.29,5.77-3.17,11.76-6.39,16.55c-5.09-3.9-6.66-11.17-7.23-14.91C326.92,415.22,328.89,403.99,333.95,404.56"/>
			</g>
		</g>
		<g>
			<g>
				<path class="st3" d="M341.26,445.14c-0.98-3.19,0.14-6.82,2.49-9.2c2.34-2.37,5.76-3.53,9.09-3.48
					c1.54,0.02,3.23,0.36,4.19,1.57c0.9,1.13,0.91,2.78,0.32,4.1c-0.59,1.32-1.68,2.34-2.85,3.18
					C350.48,444.2,346.07,446.26,341.26,445.14"/>
			</g>
		</g>
		<g>
			<g>
				<g>
					<path class="st2" d="M336.19,463.09c-0.03,0,0.01-0.43,0.1-1.19c0.1-0.84,0.23-1.92,0.38-3.22c0.36-2.69,0.81-6.54,2.64-10.37
						c1.8-3.82,4.48-6.71,6.8-8.21c1.15-0.77,2.17-1.24,2.89-1.5c0.36-0.15,0.65-0.21,0.84-0.27c0.19-0.05,0.3-0.08,0.3-0.06
						c0.04,0.09-1.65,0.51-3.87,2.08c-2.23,1.53-4.82,4.4-6.59,8.15c-1.8,3.75-2.28,7.55-2.72,10.23c-0.21,1.35-0.38,2.45-0.51,3.2
						C336.31,462.68,336.21,463.09,336.19,463.09z"/>
				</g>
			</g>
		</g>
		<g>
			<g>
				<g>
					<path class="st2" d="M333.21,413.24c0.01,0,0.05,0.17,0.09,0.51c0.05,0.38,0.11,0.87,0.18,1.47c0.15,1.28,0.34,3.13,0.56,5.42
						c0.44,4.58,0.96,10.91,1.37,17.92c0.41,7.01,0.64,13.36,0.75,17.96c0.05,2.3,0.08,4.16,0.08,5.45c0,0.61-0.01,1.1-0.01,1.48
						c-0.01,0.34-0.02,0.52-0.03,0.52c-0.01,0-0.03-0.18-0.05-0.52c-0.02-0.38-0.04-0.87-0.07-1.48c-0.05-1.34-0.12-3.18-0.21-5.44
						c-0.18-4.59-0.46-10.94-0.87-17.95c-0.41-7-0.89-13.34-1.25-17.92c-0.18-2.25-0.32-4.09-0.43-5.43
						c-0.04-0.61-0.08-1.1-0.1-1.48C333.2,413.42,333.19,413.24,333.21,413.24z"/>
				</g>
			</g>
		</g>
		<g>
			<g>
				<path class="st3" d="M333.13,449.15c-1.54-6.86-6.6-12.83-13.12-15.46c-1.66-0.67-3.8-1.04-5.05,0.24
					c-1.25,1.28-0.82,3.42-0.06,5.05c3.14,6.77,10.71,11.21,18.15,10.65"/>
			</g>
		</g>
		<g>
			<g>
				<g>
					<path class="st2" d="M321.14,439.08c0.01-0.03,0.38,0.11,1.05,0.38c0.33,0.13,0.74,0.3,1.2,0.54c0.45,0.24,0.99,0.47,1.53,0.83
						c0.55,0.34,1.16,0.7,1.76,1.16c0.63,0.43,1.25,0.96,1.9,1.51c1.27,1.15,2.55,2.54,3.68,4.16c1.11,1.64,1.95,3.33,2.57,4.93
						c0.28,0.81,0.55,1.58,0.72,2.32c0.21,0.73,0.32,1.43,0.42,2.07c0.13,0.63,0.14,1.22,0.19,1.73c0.06,0.51,0.05,0.95,0.04,1.31
						c-0.01,0.72-0.02,1.12-0.05,1.12c-0.09,0-0.03-1.6-0.47-4.11c-0.12-0.63-0.24-1.31-0.47-2.03c-0.18-0.73-0.45-1.48-0.74-2.27
						c-0.62-1.56-1.46-3.22-2.55-4.83c-1.11-1.6-2.37-2.96-3.6-4.11c-0.63-0.56-1.23-1.09-1.84-1.52c-0.59-0.47-1.18-0.84-1.71-1.19
						C322.59,439.73,321.1,439.16,321.14,439.08z"/>
				</g>
			</g>
		</g>
	</g>
</g>
<g id="Character">
	<g>
		<g>
			<path class="st4" d="M198.86,349.2l3.14,7.91v90.96l0,0c-10.08,10.71-24.14,16.78-38.84,16.78H68.01c0,0-15.23-0.56-14.66-20.3
				c0,0-1.13-10.15,7.33-12.41c0,0-19.17-3.95-19.74-18.04c-0.56-14.1,9.59-15.79,9.59-15.79s-17.48-1.13-18.61-16.92
				c-1.13-15.79,7.89-17.48,7.89-17.48s-20.3-1.13-18.61-19.17s19.17-16.92,19.17-16.92l67.67-0.01h59.32
				C181.26,327.81,193.74,336.29,198.86,349.2z"/>
			<path class="st4" d="M178.5,329.69c0,0-23.52-14.51-34.27-33.02c-7.81-13.44-10.45-29.73-10.45-29.73c0-0.81-0.1-7.95-0.18-13.8
				c-0.07-4.79-3.9-8.63-8.69-8.79c-10.08-0.34-26.08,8.36-27.94,26.98c-2.78,27.77,7.08,44.53,8.79,52.51
				c1.7,7.98,1.7,7.98,1.7,7.98L178.5,329.69z"/>
			
				<rect x="190.23" y="328.82" transform="matrix(-1 -1.224647e-16 1.224647e-16 -1 446.9157 792.6571)" class="st4" width="66.45" height="135.01"/>
			<g>
				<path class="st2" d="M190.23,463.83c-0.14,0-0.26-30.23-0.26-67.5c0-37.29,0.12-67.51,0.26-67.51c0.14,0,0.26,30.22,0.26,67.51
					C190.49,433.61,190.38,463.83,190.23,463.83z"/>
			</g>
			<g>
				<path class="st2" d="M256.68,463.83c-0.14,0-0.26-30.23-0.26-67.5c0-37.29,0.12-67.51,0.26-67.51s0.26,30.22,0.26,67.51
					C256.94,433.61,256.83,463.83,256.68,463.83z"/>
			</g>
			
				<ellipse transform="matrix(0.973 -0.231 0.231 0.973 -76.9759 61.9589)" class="st5" cx="226.13" cy="359.73" rx="12.43" ry="12.43"/>
			<g>
				<path class="st2" d="M92.48,327.81c0-0.14,7.25-0.26,16.18-0.26c8.94,0,16.18,0.12,16.18,0.26s-7.24,0.26-16.18,0.26
					C99.72,328.07,92.48,327.95,92.48,327.81z"/>
			</g>
			<g>
				<path class="st2" d="M49.18,398.95c0-0.14,4.63-0.26,10.34-0.26c5.71,0,10.34,0.12,10.34,0.26c0,0.14-4.63,0.26-10.34,0.26
					C53.82,399.21,49.18,399.09,49.18,398.95z"/>
			</g>
			<g>
				<path class="st2" d="M38.51,363.58c0-0.14,6.57-0.26,14.68-0.26c8.11,0,14.68,0.12,14.68,0.26c0,0.14-6.57,0.26-14.68,0.26
					C45.08,363.84,38.51,363.73,38.51,363.58z"/>
			</g>
			<g>
				<path class="st2" d="M56.52,432.31c0-0.14,6.57-0.26,14.68-0.26c8.11,0,14.68,0.12,14.68,0.26c0,0.14-6.57,0.26-14.68,0.26
					C63.1,432.57,56.52,432.46,56.52,432.31z"/>
			</g>
			<g class="st6">
				<path class="st5" d="M125.84,250.81c2.39,1.37,3.34,4.42,3.2,7.17c-0.14,2.75-1.15,5.37-1.75,8.06
					c-1.33,5.94-0.64,12.32,1.94,17.83c0.79,1.68,1.76,3.62,0.95,5.3c-1.14,2.38-4.65,2.02-7.05,0.93
					c-9.09-4.14-15.28-13.95-15.11-23.93c0.07-4.21,1.25-8.51,3.97-11.72C114.71,251.23,119.25,247.83,125.84,250.81"/>
			</g>
			<g class="st6">
				<path class="st5" d="M35,331.43c2.11-0.94,4.51-0.91,6.82-0.87c13.45,0.26,26.89,0.52,40.34,0.78c4.4,0.08,12.41-0.8,13.48,3.42
					l0,0c1.38,2.12,0.23,5.14-1.82,6.62c-2.05,1.48-4.7,1.79-7.22,1.97c-5.28,0.37-10.59,0.36-15.88,0.34
					c-10.64-0.05-21.34-0.18-31.83-1.92c-1.56-0.26-3.14-0.56-4.53-1.32c-1.39-0.75-2.57-2.04-2.83-3.6
					C31.15,334.58,32.89,332.37,35,331.43z"/>
			</g>
			<g>
				<path class="st5" d="M205.9,332.65c0-0.14,9.29-0.26,20.74-0.26c11.46,0,20.74,0.12,20.74,0.26c0,0.14-9.28,0.26-20.74,0.26
					C215.19,332.91,205.9,332.79,205.9,332.65z"/>
			</g>
			<g>
				<path class="st5" d="M39.29,386.85c-0.03,0.02-0.18-0.23-0.42-0.69c-0.25-0.45-0.54-1.15-0.82-2.04
					c-0.29-0.89-0.51-1.98-0.63-3.21c-0.1-1.23-0.08-2.59,0.13-4.01c0.23-1.41,0.62-2.72,1.08-3.86c0.48-1.14,1.02-2.11,1.56-2.87
					c0.53-0.76,1.02-1.34,1.39-1.7c0.37-0.37,0.58-0.55,0.61-0.53c0.07,0.07-0.73,0.89-1.69,2.43c-0.49,0.77-0.98,1.74-1.42,2.85
					c-0.42,1.12-0.79,2.39-1.01,3.76c-0.2,1.37-0.23,2.69-0.16,3.89c0.09,1.2,0.27,2.27,0.51,3.15
					C38.86,385.79,39.38,386.81,39.29,386.85z"/>
			</g>
			<g>
				<path class="st5" d="M29.45,352.65c-0.03,0.04-0.74-0.39-1.58-1.42c-0.85-1.01-1.74-2.68-2.08-4.69
					c-0.33-2.01-0.02-3.88,0.45-5.11c0.47-1.24,1-1.88,1.04-1.85c0.08,0.05-0.33,0.74-0.69,1.97c-0.37,1.22-0.6,2.99-0.29,4.91
					c0.32,1.92,1.11,3.52,1.86,4.56C28.9,352.05,29.51,352.58,29.45,352.65z"/>
			</g>
			<g>
				<path class="st5" d="M51,423.42c-0.02,0.05-0.93-0.26-2.09-1.28c-1.14-0.99-2.46-2.8-2.86-5.14c-0.4-2.34,0.25-4.49,1-5.8
					c0.75-1.34,1.52-1.93,1.55-1.89c0.07,0.06-0.58,0.74-1.22,2.06c-0.64,1.3-1.19,3.35-0.82,5.55c0.38,2.2,1.57,3.94,2.6,4.96
					C50.21,422.92,51.05,423.34,51,423.42z"/>
			</g>
			<g>
				<path class="st5" d="M64.53,455.48c-0.03,0.04-0.73-0.45-1.56-1.53c-0.84-1.07-1.73-2.78-2.12-4.83
					c-0.38-2.05-0.17-3.97,0.22-5.27c0.39-1.31,0.85-2.02,0.9-1.99c0.08,0.04-0.26,0.79-0.54,2.08c-0.29,1.28-0.43,3.11-0.07,5.08
					c0.38,1.97,1.18,3.62,1.91,4.71C63.99,454.84,64.59,455.42,64.53,455.48z"/>
			</g>
			<g>
				<path class="st5" d="M103.32,301.71c-0.03,0.02-0.29-0.47-0.72-1.37c-0.22-0.45-0.48-1-0.73-1.66c-0.26-0.66-0.58-1.4-0.85-2.25
					c-0.6-1.68-1.17-3.73-1.65-6.04c-0.45-2.32-0.79-4.89-0.91-7.62c-0.09-2.72,0.05-5.32,0.32-7.66c0.3-2.34,0.71-4.43,1.18-6.15
					c0.2-0.87,0.47-1.63,0.68-2.31c0.2-0.68,0.42-1.25,0.6-1.71c0.36-0.93,0.58-1.43,0.61-1.42c0.03,0.01-0.12,0.54-0.42,1.49
					c-0.16,0.47-0.34,1.05-0.52,1.73c-0.18,0.68-0.42,1.44-0.6,2.31c-0.42,1.72-0.79,3.79-1.06,6.12c-0.24,2.32-0.37,4.89-0.28,7.59
					c0.12,2.69,0.44,5.25,0.86,7.54c0.45,2.29,0.97,4.33,1.53,6.02c0.24,0.85,0.54,1.59,0.77,2.26c0.23,0.67,0.45,1.23,0.65,1.69
					C103.16,301.18,103.35,301.7,103.32,301.71z"/>
			</g>
		</g>
		<g>
			<path class="st3" d="M186.38,331.19c-3.27,17.2-6.2,34.46-9.07,51.73c-2.92,17.58-5.77,35.18-8.81,52.75
				c-1.66,9.59-3.37,19.17-5.19,28.73c-0.24,1.25,0.35,2.54,1.64,2.89c1.15,0.32,2.65-0.39,2.89-1.64
				c3.27-17.2,6.2-34.46,9.07-51.73c2.92-17.58,5.77-35.18,8.81-52.75c1.66-9.59,3.37-19.17,5.19-28.73
				c0.24-1.25-0.35-2.54-1.64-2.89C188.12,329.23,186.62,329.93,186.38,331.19L186.38,331.19z"/>
		</g>
		<g class="st6">
			<path d="M106.85,327.22c8.99,6.29,20.34,9.11,31.23,7.75c10.89-1.36,21.2-6.88,28.37-15.18
				C146.86,328.7,127.03,331.94,106.85,327.22z"/>
		</g>
		<g>
			<path class="st3" d="M104.22,326.84c16,4.82,33.48,4.56,49.35-0.64c4.55-1.49,8.97-3.39,13.19-5.65c2.67-1.43,0.3-5.49-2.37-4.06
				c-13.98,7.48-30.17,10.39-45.9,8.56c-4.41-0.51-8.77-1.47-13.02-2.75C102.56,321.43,101.32,325.97,104.22,326.84L104.22,326.84z"
				/>
		</g>
		<g>
			<path class="st3" d="M180.68,331.45c0,17.03,0,34.06,0,51.09c0,16.95,0,33.91,0,50.86c0,9.61,0,19.22,0,28.83
				c0,3.03,4.7,3.03,4.7,0c0-17.03,0-34.06,0-51.09c0-16.95,0-33.91,0-50.86c0-9.61,0-19.22,0-28.83
				C185.38,328.43,180.68,328.42,180.68,331.45L180.68,331.45z"/>
		</g>
		<g>
			<path class="st3" d="M191.04,331.09c-0.38-9.28-3.44-18.46-8.92-25.98c-1.42-1.95-2.98-4.18-5.59-4.44
				c-2.58-0.25-4.69,1.64-4.73,4.24c-0.03,2.17,1.12,4.44,1.92,6.41c0.9,2.22,1.88,4.41,2.96,6.54c2.45,4.84,5.4,9.36,8.73,13.63
				c0.78,1,2.5,0.82,3.32,0c0.99-0.99,0.78-2.32,0-3.33c-4.7-6.04-8.54-12.85-11.22-20.02c-0.3-0.79-0.61-1.59-0.85-2.4
				c0.01,0.04-0.22-0.85-0.16-0.84c-0.01,0-0.32,0.41-0.31,0.42c0.01,0.08,0.34,0.3,0.39,0.35c0.32,0.31,0.61,0.66,0.89,1.01
				c0.53,0.68,1.03,1.38,1.51,2.09c2.07,3.07,3.77,6.4,4.99,9.9c1.39,4.01,2.2,8.17,2.38,12.41
				C186.47,334.11,191.17,334.12,191.04,331.09L191.04,331.09z"/>
		</g>
		<g>
			<path class="st3" d="M190.77,334.13c5.96-9.31,9.68-19.91,10.96-30.88c0.3-2.57,0-5.64-2.89-6.57c-2.8-0.89-5.16,1.51-6.45,3.68
				c-2.66,4.47-4.52,9.5-5.48,14.61c-1.14,6.04-1.1,12.18,0.12,18.19c0.25,1.24,1.73,1.96,2.89,1.64c1.3-0.36,1.9-1.64,1.64-2.89
				c-1.72-8.49-0.7-17.62,2.96-25.49c0.44-0.96,0.93-1.9,1.44-2.83c0.25-0.45,0.5-0.91,0.79-1.34c0.13-0.19,0.88-0.88,0.87-0.98
				c-0.01-0.06-0.16-0.26-0.4-0.28c-0.31-0.03,0.03-0.31-0.07,0.01c0.04-0.11,0.05,0.42,0.04,0.31c0.08,0.96-0.13,2-0.26,2.95
				c-0.64,4.64-1.78,9.21-3.35,13.62c-1.73,4.88-4.06,9.52-6.85,13.87C185.07,334.31,189.14,336.67,190.77,334.13L190.77,334.13z"/>
		</g>
		<g>
			<g>
				<path class="st2" d="M105.74,327.29c-0.13,0.05-0.54-1.09-0.16-2.47c0.18-0.68,0.51-1.25,0.83-1.59
					c0.32-0.34,0.59-0.46,0.63-0.41c0.09,0.11-0.66,0.87-0.96,2.13C105.74,326.19,105.89,327.26,105.74,327.29z"/>
			</g>
			<g>
				<path class="st2" d="M108.96,328.08c-0.13,0.05-0.54-1.09-0.16-2.47c0.18-0.68,0.51-1.25,0.83-1.59
					c0.32-0.34,0.59-0.46,0.63-0.41c0.09,0.11-0.66,0.87-0.96,2.13C108.96,326.99,109.1,328.05,108.96,328.08z"/>
			</g>
			<g>
				<path class="st2" d="M112.44,328.8c-0.13,0.05-0.54-1.09-0.16-2.47c0.18-0.68,0.51-1.25,0.83-1.59
					c0.32-0.34,0.59-0.46,0.63-0.41c0.08,0.11-0.66,0.87-0.96,2.13C112.44,327.7,112.58,328.77,112.44,328.8z"/>
			</g>
			<g>
				<path class="st2" d="M116.06,329.43c-0.13,0.06-0.61-1.05-0.32-2.46c0.13-0.69,0.42-1.28,0.72-1.64c0.3-0.36,0.56-0.5,0.6-0.45
					c0.09,0.1-0.6,0.91-0.82,2.19C115.99,328.33,116.2,329.39,116.06,329.43z"/>
			</g>
			<g>
				<path class="st2" d="M119.99,329.91c-0.12,0.08-0.72-0.98-0.6-2.4c0.06-0.7,0.28-1.32,0.53-1.71c0.25-0.39,0.5-0.56,0.55-0.51
					c0.1,0.09-0.5,0.97-0.56,2.27C119.8,328.83,120.13,329.85,119.99,329.91z"/>
			</g>
			<g>
				<path class="st2" d="M124.09,330.19c-0.12,0.08-0.77-0.94-0.72-2.37c0.02-0.7,0.21-1.33,0.45-1.74
					c0.23-0.41,0.47-0.58,0.52-0.54c0.11,0.09-0.45,0.99-0.45,2.29C123.84,329.12,124.22,330.13,124.09,330.19z"/>
			</g>
			<g>
				<path class="st2" d="M128.51,330.21c-0.12,0.08-0.77-0.94-0.72-2.37c0.02-0.7,0.21-1.33,0.45-1.74
					c0.23-0.41,0.47-0.58,0.52-0.54c0.11,0.09-0.45,0.99-0.45,2.29C128.27,329.14,128.65,330.14,128.51,330.21z"/>
			</g>
			<g>
				<path class="st2" d="M133.09,330.14c-0.1,0.1-0.88-0.84-1.01-2.26c-0.07-0.7,0.04-1.35,0.22-1.78c0.18-0.43,0.4-0.64,0.45-0.6
					c0.12,0.07-0.32,1.04-0.16,2.33C132.71,329.11,133.21,330.06,133.09,330.14z"/>
			</g>
			<g>
				<path class="st2" d="M137.48,329.71c-0.1,0.1-0.88-0.84-1.01-2.26c-0.07-0.7,0.04-1.35,0.22-1.78c0.18-0.43,0.4-0.64,0.45-0.6
					c0.12,0.07-0.32,1.04-0.16,2.33C137.1,328.69,137.61,329.64,137.48,329.71z"/>
			</g>
			<g>
				<path class="st2" d="M142.15,329.05c-0.09,0.11-1-0.69-1.34-2.08c-0.17-0.68-0.16-1.34-0.04-1.79c0.11-0.45,0.3-0.69,0.35-0.66
					c0.13,0.05-0.16,1.08,0.19,2.33C141.62,328.09,142.27,328.96,142.15,329.05z"/>
			</g>
			<g>
				<path class="st2" d="M146.9,328.08c-0.09,0.11-1-0.69-1.34-2.08c-0.17-0.68-0.16-1.34-0.04-1.79c0.11-0.45,0.3-0.69,0.36-0.66
					c0.13,0.05-0.16,1.08,0.19,2.33C146.37,327.12,147.01,327.98,146.9,328.08z"/>
			</g>
			<g>
				<path class="st2" d="M151.56,326.77c-0.09,0.11-1-0.69-1.34-2.08c-0.17-0.68-0.16-1.34-0.04-1.79c0.11-0.45,0.3-0.69,0.35-0.66
					c0.13,0.05-0.16,1.08,0.19,2.33C151.03,325.8,151.68,326.67,151.56,326.77z"/>
			</g>
			<g>
				<path class="st2" d="M156.31,325.25c-0.08,0.12-1.07-0.58-1.57-1.92c-0.25-0.66-0.31-1.31-0.25-1.77
					c0.06-0.46,0.22-0.72,0.28-0.7c0.13,0.04-0.04,1.09,0.46,2.29C155.67,324.36,156.41,325.14,156.31,325.25z"/>
			</g>
			<g>
				<path class="st2" d="M160.5,323.57c-0.08,0.12-1.07-0.58-1.57-1.92c-0.25-0.66-0.31-1.31-0.25-1.77
					c0.06-0.46,0.22-0.72,0.28-0.7c0.13,0.04-0.04,1.09,0.46,2.29C159.87,322.68,160.6,323.46,160.5,323.57z"/>
			</g>
			<g>
				<path class="st2" d="M164.78,321.54c-0.06,0.13-1.14-0.42-1.82-1.68c-0.34-0.62-0.5-1.26-0.5-1.72
					c-0.01-0.47,0.11-0.74,0.17-0.73c0.14,0.02,0.12,1.08,0.78,2.2C164.02,320.74,164.86,321.41,164.78,321.54z"/>
			</g>
		</g>
	</g>
	<g>
		<g>
			<polygon class="st7" points="219.33,403.67 234.71,394.36 251.35,415.34 229.57,425.51 219.48,422.25 			"/>
			<g>
				<g>
					<g>
						<g>
							<g>
								<g>
									<g>
										<g>
											<g>
												<g>
													<g>
														<g>
															<g>
																<g>
																	<path class="st3" d="M234.51,426.82l-1.68,0.87c0,0,2.88,33.44-2.38,36.51l-28.14-54.87l19.26-8.84
																		C221.85,410.64,225.79,419.4,234.51,426.82z"/>
																</g>
															</g>
														</g>
													</g>
												</g>
											</g>
										</g>
									</g>
								</g>
							</g>
						</g>
						<g class="st8">
							<g>
								<g>
									<g>
										<g>
											<g>
												<g>
													<g>
														<g>
															<g>
																<g>
																	<g>
																		<path class="st5" d="M217.84,408.67c-0.84-0.91-2.46-1.02-3.44-0.21c-0.98,0.81-1.15,2.41-0.32,3.34
																			c0.83,0.92,2.76,1.11,3.64,0.2c0.89-0.91,0.97-2.8-0.06-3.5"/>
																	</g>
																</g>
															</g>
														</g>
													</g>
												</g>
											</g>
										</g>
									</g>
								</g>
							</g>
						</g>
						<g class="st8">
							<g>
								<g>
									<g>
										<g>
											<g>
												<g>
													<g>
														<g>
															<g>
																<g>
																	<path class="st5" d="M201.77,408.89l4.63-2.13l25.28,53.36c0,0,0.15,3-1.77,3.63L201.77,408.89z"/>
																</g>
															</g>
														</g>
													</g>
												</g>
											</g>
										</g>
									</g>
								</g>
							</g>
						</g>
						<g>
							<g>
								<g>
									<g>
										<g>
											<g>
												<g>
													<g>
														<g>
															<g>
																<g>
																	<g>
																		<path class="st2" d="M232.23,427.52c-0.28,0.13-1.09-1.14-2.66-2.01c-1.54-0.91-3.09-0.98-3.11-1.28
																			c-0.07-0.27,1.79-0.72,3.66,0.37C232.01,425.66,232.51,427.45,232.23,427.52z"/>
																	</g>
																</g>
															</g>
														</g>
													</g>
												</g>
											</g>
										</g>
									</g>
								</g>
							</g>
						</g>
						<g>
							<g>
								<g>
									<g>
										<g>
											<g>
												<g>
													<g>
														<g>
															<g>
																<g>
																	<g>
																		<path class="st2" d="M232.72,434.52c-0.24,0.2-1.3-0.72-2.94-1.04c-1.63-0.36-3.01,0.05-3.14-0.22
																			c-0.17-0.23,1.35-1.24,3.38-0.81C232.05,432.87,232.98,434.38,232.72,434.52z"/>
																	</g>
																</g>
															</g>
														</g>
													</g>
												</g>
											</g>
										</g>
									</g>
								</g>
							</g>
						</g>
						<g>
							<g>
								<g>
									<g>
										<g>
											<g>
												<g>
													<g>
														<g>
															<g>
																<g>
																	<g>
																		<path class="st2" d="M227.27,441.41c-0.18-0.21,1.01-1.29,2.88-1.37c1.87-0.1,3.12,0.86,2.94,1.09
																			c-0.15,0.27-1.38-0.13-2.92-0.04C228.65,441.14,227.44,441.66,227.27,441.41z"/>
																	</g>
																</g>
															</g>
														</g>
													</g>
												</g>
											</g>
										</g>
									</g>
								</g>
							</g>
						</g>
					</g>
				</g>
			</g>
		</g>
		<g>
			<polygon class="st7" points="388.92,442.98 390.92,425.11 418.5,424.88 413.19,448.33 404.22,454.29 			"/>
			<g>
				<g>
					<g>
						<g>
							<g>
								<g>
									<g>
										<g>
											<g>
												<g>
													<g>
														<g>
															<g>
																<g>
																	<path class="st3" d="M414.34,447.79l-0.3,1.71c0,0,26.14,16.79,25.45,22.33l-56.03-10.58l4.32-18.94
																		C395.36,447.83,404,449.92,414.34,447.79z"/>
																</g>
															</g>
														</g>
													</g>
												</g>
											</g>
										</g>
									</g>
								</g>
							</g>
						</g>
						<g class="st8">
							<g>
								<g>
									<g>
										<g>
											<g>
												<g>
													<g>
														<g>
															<g>
																<g>
																	<g>
																		<path class="st5" d="M392.31,449.48c-1.14,0.1-2.12,1.2-2.08,2.37c0.04,1.17,1.13,2.19,2.27,2.11
																			c1.14-0.08,2.36-1.37,2.19-2.53c-0.17-1.16-1.51-2.29-2.6-1.93"/>
																	</g>
																</g>
															</g>
														</g>
													</g>
												</g>
											</g>
										</g>
									</g>
								</g>
							</g>
						</g>
						<g class="st8">
							<g>
								<g>
									<g>
										<g>
											<g>
												<g>
													<g>
														<g>
															<g>
																<g>
																	<path class="st5" d="M383.45,461.24l1.04-4.55l53.32,11.81c0,0,2.29,1.58,1.67,3.33L383.45,461.24z"/>
																</g>
															</g>
														</g>
													</g>
												</g>
											</g>
										</g>
									</g>
								</g>
							</g>
						</g>
						<g>
							<g>
								<g>
									<g>
										<g>
											<g>
												<g>
													<g>
														<g>
															<g>
																<g>
																	<g>
																		<path class="st2" d="M414.2,449.69c-0.06,0.28-1.45,0.15-2.97,0.79c-1.53,0.61-2.45,1.69-2.68,1.53
																			c-0.24-0.1,0.48-1.7,2.32-2.45C412.72,448.8,414.31,449.44,414.2,449.69z"/>
																	</g>
																</g>
															</g>
														</g>
													</g>
												</g>
											</g>
										</g>
									</g>
								</g>
							</g>
						</g>
						<g>
							<g>
								<g>
									<g>
										<g>
											<g>
												<g>
													<g>
														<g>
															<g>
																<g>
																	<g>
																		<path class="st2" d="M419.61,453.29c0.01,0.28-1.26,0.54-2.41,1.54c-1.18,0.97-1.65,2.21-1.92,2.15
																			c-0.27,0-0.15-1.68,1.3-2.91C418.03,452.83,419.66,453.02,419.61,453.29z"/>
																	</g>
																</g>
															</g>
														</g>
													</g>
												</g>
											</g>
										</g>
									</g>
								</g>
							</g>
						</g>
						<g>
							<g>
								<g>
									<g>
										<g>
											<g>
												<g>
													<g>
														<g>
															<g>
																<g>
																	<g>
																		<path class="st2" d="M421.61,461.12c-0.26,0.01-0.38-1.46,0.61-2.86c0.98-1.41,2.38-1.77,2.45-1.51
																			c0.11,0.26-0.87,0.93-1.67,2.09C422.18,459.97,421.89,461.14,421.61,461.12z"/>
																	</g>
																</g>
															</g>
														</g>
													</g>
												</g>
											</g>
										</g>
									</g>
								</g>
							</g>
						</g>
					</g>
				</g>
			</g>
		</g>
		<path class="st2" d="M338.46,302.19l59.12,37.51l-9.84,91.05l31.12,4.58l18.33-88.1c0,0,4.87-18.59-5.48-28.88
			c-12.17-12.1-54.63-52.34-54.63-52.34l4.74-9.54l-45.24-29.45l-9.96,6c-9.21,7.29-14.92,15.69-16.43,27.34
			c-0.21,1.6-0.33,3.22-0.37,4.85c-0.05,2.57-0.04,7.38,2.24,13.06C316.86,290.27,338.46,302.19,338.46,302.19z"/>
		<path class="st2" d="M311.04,261.77l-7.44,77.63l-77.49,54.25l14.96,27.87l91.23-55.06c2.8-1.93,4.93-4.67,6.11-7.85l27.4-73.71
			L311.04,261.77z"/>
		<g>
			<path class="st3" d="M396.88,340.04c-0.01,0.01-0.1-0.04-0.27-0.15c-0.19-0.12-0.44-0.28-0.76-0.48
				c-0.69-0.45-1.66-1.08-2.88-1.88c-2.52-1.67-6.12-4.05-10.55-6.98c-8.91-5.95-21.17-14.14-34.71-23.18
				c-6.77-4.55-13.21-8.87-19.07-12.82c-2.93-1.97-5.71-3.85-8.31-5.6c-1.32-0.85-2.45-1.94-3.45-2.99c-1.02-1.06-1.86-2.2-2.63-3.3
				c-2.98-4.52-3.98-8.88-4.34-11.83c-0.32-2.99-0.09-4.64-0.09-4.64c0.01,0,0.02,0.1,0.02,0.31c0,0.23,0.01,0.52,0.01,0.89
				c0.01,0.78,0.07,1.94,0.26,3.42c0.42,2.92,1.47,7.23,4.44,11.65c0.76,1.08,1.6,2.2,2.61,3.23c1.01,1.04,2.09,2.07,3.41,2.92
				c2.61,1.74,5.4,3.61,8.34,5.56c5.87,3.93,12.32,8.25,19.09,12.78c13.5,9.09,25.73,17.32,34.61,23.3
				c4.39,2.99,7.96,5.41,10.46,7.11c1.21,0.83,2.15,1.49,2.83,1.96c0.3,0.21,0.54,0.39,0.73,0.52
				C396.8,339.97,396.88,340.03,396.88,340.04z"/>
		</g>
		<g>
			<path class="st3" d="M352.67,244.33c0.02-0.03,0.49,0.3,1.31,0.91c0.82,0.62,1.99,1.54,3.39,2.71c2.82,2.34,6.6,5.73,10.67,9.56
				c4.07,3.84,7.68,7.39,10.28,9.97c1.24,1.25,2.28,2.28,3.06,3.07c0.72,0.73,1.1,1.15,1.08,1.18c-0.02,0.03-0.46-0.34-1.22-1.03
				c-0.82-0.76-1.89-1.76-3.18-2.96c-2.72-2.58-6.36-6.04-10.39-9.85c-4.07-3.83-7.8-7.25-10.55-9.66c-1.37-1.21-2.5-2.17-3.28-2.84
				C353.07,244.74,352.65,244.36,352.67,244.33z"/>
		</g>
	</g>
	<g>
		<g>
			<g>
				<path class="st2" d="M426.95,95.44c-0.05-1.96-1-3.83-2.28-5.36c-1.41-1.69-3.25-3.05-5.33-3.77
					c-3.83-1.33-8.37-0.27-11.15,2.61c-2.78,2.88-3.66,7.41-2.16,11.16c1.5,3.74,6.51,7.44,10.55,7.7l5.86-4.78
					C424.94,101.22,427.03,98.5,426.95,95.44z"/>
				<g>
					<g>
						<g>
							<path class="st2" d="M453.77,100.34c-4.77-3.81-10.51-4.39-16.58-3.94c-6.07,0.45-11.87,3-16.53,6.82
								c-4.91,4.03-8.64,9.56-10.04,15.75c-1.4,6.19-0.35,13,3.26,18.3c4.94,7.23,14.37,10.91,23.03,9.76
								c8.67-1.15,16.37-6.74,20.88-14.13c3.1-5.09,4.81-11.12,4.26-17.08C461.5,109.86,458.58,104.01,453.77,100.34"/>
						</g>
					</g>
					<g>
						<g>
							<g>
								<g>
									<path class="st2" d="M428.97,109.63c1.87-1.55,2.81-3.93,4.29-5.86c3.25-4.25,9.1-5.85,14.49-5.22
										c5.01,0.59,9.78,3.72,13.82,8.02c2.77,2.94,4.9,6.57,5.64,10.51c0.99,5.23-0.77,10.85-4.56,14.56l-22.13-16.83
										c-3.27,0.58-6.62,1.16-9.92,0.66c-0.97-0.15-1.96-0.4-2.73-1c-0.77-0.6-1.28-1.63-1.02-2.56
										C427.13,110.88,428.16,110.3,428.97,109.63z"/>
								</g>
							</g>
						</g>
						<g>
							<g>
								<g>
									<path class="st7" d="M458.44,113.38l-23.44-7.3c-2.11-1-4.61-0.24-5.77,1.74l-24.67,44.85c-1.69,3.06-2.3,6.61-1.74,10.08
										l0.59,3.66c1.34,8.33,10.91,12.9,18.01,8.36c0.5-0.32,0.89-0.62,1.14-0.9c0.29-0.36,0.55-0.57,0.76-0.9l0,0
										c2.42-3.87,7.54-12.03,7.52-12c0,0,9.19,3.71,17.46-5.96c4.11-4.81,9.18-13.72,13.08-21.14
										C464.89,127.18,465.37,116.66,458.44,113.38z"/>
								</g>
							</g>
						</g>
						<g>
							<g>
								<g>
									<g>
										<g>
											<g>
												<g>
													<g>
														<g>
															<g>
																<g>
																	<g>
																		<g>
																			<g>
																				<g>
																					<g>
																						<g>
																							<g>
																								<g>
																									<path class="st2" d="M453.8,140.66c-0.42,0.74-1.4,1-2.2,0.57c-0.79-0.43-1.1-1.37-0.68-2.12
																										c0.42-0.74,1.4-1,2.19-0.57C453.91,138.97,454.21,139.92,453.8,140.66z"/>
																								</g>
																							</g>
																						</g>
																					</g>
																				</g>
																			</g>
																		</g>
																	</g>
																</g>
															</g>
														</g>
													</g>
												</g>
											</g>
										</g>
									</g>
									<g>
										<g>
											<g>
												<g>
													<g>
														<g>
															<g>
																<g>
																	<g>
																		<g>
																			<g>
																				<g>
																					<g>
																						<g>
																							<g>
																								<g>
																									<g>
																										<path class="st2" d="M456.68,137.24c-0.28,0.07-0.87-1.34-2.38-2.25c-1.49-0.93-3.06-0.84-3.11-1.12
																											c-0.03-0.13,0.34-0.35,1.03-0.4c0.68-0.06,1.69,0.1,2.63,0.68c0.93,0.57,1.52,1.39,1.76,2.01
																											C456.85,136.79,456.81,137.21,456.68,137.24z"/>
																									</g>
																								</g>
																							</g>
																						</g>
																					</g>
																				</g>
																			</g>
																		</g>
																	</g>
																</g>
															</g>
														</g>
													</g>
												</g>
											</g>
										</g>
									</g>
								</g>
								<g>
									<g>
										<g>
											<g>
												<g>
													<g>
														<g>
															<g>
																<g>
																	<g>
																		<g>
																			<g>
																				<g>
																					<g>
																						<g>
																							<g>
																								<g>
																									<path class="st2" d="M440.09,132.4c-0.42,0.74-1.4,1-2.19,0.57c-0.79-0.43-1.1-1.37-0.68-2.11
																										c0.42-0.74,1.4-1,2.19-0.57C440.2,130.71,440.51,131.66,440.09,132.4z"/>
																								</g>
																							</g>
																						</g>
																					</g>
																				</g>
																			</g>
																		</g>
																	</g>
																</g>
															</g>
														</g>
													</g>
												</g>
											</g>
										</g>
									</g>
									<g>
										<g>
											<g>
												<g>
													<g>
														<g>
															<g>
																<g>
																	<g>
																		<g>
																			<g>
																				<g>
																					<g>
																						<g>
																							<g>
																								<g>
																									<g>
																										<path class="st2" d="M442.28,128.75c-0.28,0.07-0.87-1.34-2.38-2.25c-1.49-0.93-3.06-0.84-3.11-1.12
																											c-0.03-0.13,0.34-0.35,1.03-0.4c0.68-0.06,1.69,0.1,2.63,0.67c0.93,0.57,1.52,1.39,1.76,2.02
																											C442.46,128.3,442.42,128.72,442.28,128.75z"/>
																									</g>
																								</g>
																							</g>
																						</g>
																					</g>
																				</g>
																			</g>
																		</g>
																	</g>
																</g>
															</g>
														</g>
													</g>
												</g>
											</g>
										</g>
									</g>
								</g>
								<g>
									<g>
										<g>
											<g>
												<g>
													<g>
														<g>
															<g>
																<g>
																	<g>
																		<g>
																			<g>
																				<g>
																					<g>
																						<g>
																							<g>
																								<g>
																									<path class="st2" d="M440.48,142.82c0.04-0.09,1.08,0.32,2.71,1.05c0.41,0.19,0.82,0.34,1.04,0.12
																										c0.26-0.22,0.35-0.72,0.43-1.28c0.2-1.13,0.4-2.32,0.62-3.57c0.92-5.05,1.84-9.12,2.04-9.07
																										c0.21,0.04-0.37,4.17-1.3,9.23c-0.24,1.24-0.46,2.42-0.68,3.55c-0.12,0.52-0.16,1.16-0.71,1.6
																										c-0.28,0.22-0.68,0.25-0.97,0.17c-0.29-0.08-0.51-0.2-0.71-0.31
																										C441.39,143.48,440.44,142.91,440.48,142.82z"/>
																								</g>
																							</g>
																						</g>
																					</g>
																				</g>
																			</g>
																		</g>
																	</g>
																</g>
															</g>
														</g>
													</g>
												</g>
											</g>
										</g>
									</g>
								</g>
								<g>
									<g>
										<g>
											<g>
												<g>
													<g>
														<g>
															<g>
																<g>
																	<g>
																		<g>
																			<g>
																				<g>
																					<g>
																						<g>
																							<g>
																								<path class="st9" d="M430.84,160.96c0,0-7.62-3.99-12.26-12.7c0,0-0.86,9.65,10.67,15.28L430.84,160.96z"/>
																							</g>
																						</g>
																					</g>
																				</g>
																			</g>
																		</g>
																	</g>
																</g>
															</g>
														</g>
													</g>
												</g>
											</g>
										</g>
									</g>
								</g>
							</g>
						</g>
						<g>
							<g>
								<g>
									<g>
										<g>
											<g>
												<g>
													<g>
														<g>
															<g>
																<g>
																	<g>
																		<g>
																			<g>
																				<g>
																					<path class="st2" d="M446.78,124.63c-0.44,0.24-1.62-1.08-3.34-2.25c-1.7-1.2-3.35-1.85-3.28-2.34
																						c0.04-0.23,0.55-0.38,1.36-0.28c0.8,0.09,1.89,0.47,2.92,1.18c1.02,0.71,1.76,1.6,2.13,2.32
																						C446.94,123.98,446.98,124.51,446.78,124.63z"/>
																				</g>
																			</g>
																		</g>
																	</g>
																</g>
															</g>
														</g>
													</g>
												</g>
											</g>
										</g>
									</g>
								</g>
							</g>
						</g>
						<g>
							<g>
								<g>
									<g>
										<g>
											<g>
												<g>
													<g>
														<g>
															<g>
																<g>
																	<g>
																		<g>
																			<g>
																				<g>
																					<path class="st2" d="M457.63,133.67c-0.42,0.19-1.69-0.48-3.31-0.95c-1.61-0.5-3.05-0.64-3.28-1.03
																						c-0.1-0.18,0.2-0.41,0.88-0.51c0.67-0.11,1.72-0.05,2.83,0.28c1.11,0.33,2,0.86,2.48,1.31
																						C457.72,133.22,457.82,133.57,457.63,133.67z"/>
																				</g>
																			</g>
																		</g>
																	</g>
																</g>
															</g>
														</g>
													</g>
												</g>
											</g>
										</g>
									</g>
								</g>
							</g>
						</g>
						<g>
							<g>
								<g>
									<path class="st2" d="M426.9,104.29c5.68-5.08,19.97-8.36,26.36-4.03l6.97,12.47c-2.73,3.19-7.34,4.67-11.48,3.67
										c-2.21-0.53-4.57-1.7-6.62-0.76c-2.09,0.96-2.81,3.71-4.85,4.77c-2.83,1.46-6.79-0.99-9.37,0.88
										c-1.12,0.82-1.64,2.27-2.78,3.07c-1.52,1.06-6.33,0.73-7.59-0.65c-1.26-1.38,0.24-3.97,0.53-5.62
										c0.49-2.82,1.55-3.81,2.59-4.94C423.14,110.49,424.19,106.72,426.9,104.29z"/>
								</g>
							</g>
						</g>
						<g>
							<g>
								<g>
									<g>
										<g>
											<g>
												<path class="st7" d="M421.37,127.65c0.48-0.8,0.7-3.25-0.03-3.86c-1.94-1.63-5.9-3.8-9.2,1.52
													c-4.51,7.28,3.85,10.36,4,10.16C416.24,135.31,419.69,130.41,421.37,127.65z"/>
											</g>
										</g>
									</g>
								</g>
							</g>
						</g>
						<g>
							<g>
								<g>
									<g>
										<g>
											<g>
												<g>
													<path class="st9" d="M415.58,131.32c-0.02-0.04-0.18,0.01-0.46-0.03c-0.27-0.04-0.68-0.19-0.98-0.57
														c-0.61-0.76-0.51-2.39,0.27-3.73c0.39-0.67,0.92-1.22,1.49-1.59c0.56-0.39,1.14-0.55,1.57-0.38
														c0.45,0.15,0.58,0.56,0.55,0.82c-0.03,0.27-0.16,0.38-0.13,0.42c0.01,0.03,0.23-0.02,0.36-0.36
														c0.06-0.16,0.08-0.39-0.01-0.64c-0.09-0.25-0.31-0.48-0.6-0.63c-0.6-0.31-1.43-0.11-2.05,0.3
														c-0.65,0.39-1.26,1-1.7,1.75c-0.86,1.5-0.95,3.34-0.07,4.3c0.44,0.45,0.97,0.57,1.3,0.53
														C415.45,131.49,415.59,131.35,415.58,131.32z"/>
												</g>
											</g>
										</g>
									</g>
								</g>
							</g>
						</g>
					</g>
					<g>
						<g>
							<g>
								<path class="st4" d="M414.46,110.4c-0.06-0.02,0.21-0.98,0.97-2.4c0.75-1.42,2.05-3.25,3.88-4.91
									c1.84-1.65,3.81-2.75,5.3-3.36c1.5-0.61,2.49-0.78,2.51-0.72c0.09,0.17-3.85,1.24-7.42,4.5
									C416.07,106.73,414.63,110.5,414.46,110.4z"/>
							</g>
						</g>
					</g>
					<g>
						<g>
							<path class="st2" d="M459.29,109.25c-1,3.43,1.53,9.95,2.27,13.46c1.42,6.71,1.36,8.64-4.31,18.72
								c3.8-2.46,7.13-5.08,9.18-9.1c2.05-4.02,2.78-8.78,1.57-13.16C466.8,114.8,463.57,110.89,459.29,109.25"/>
						</g>
					</g>
				</g>
				<g>
					<path class="st3" d="M409.48,108.69c0.03-0.03,0.62,0.49,1.67,1.44c1.06,0.92,2.59,2.33,4.79,3.53c1.1,0.59,2.39,1.09,3.83,1.3
						c1.43,0.21,3.03,0.14,4.49-0.5c1.48-0.61,2.61-1.97,4.19-2.99c1.59-1.02,3.7-1.36,5.66-0.8c1.96,0.59,3.43,1.93,5.13,2.28
						c1.7,0.38,3.28-0.54,4.65-1.41c1.37-0.91,2.86-1.68,4.35-1.99c1.49-0.33,2.93-0.31,4.2-0.12c2.57,0.38,4.44,1.49,5.54,2.38
						c0.55,0.45,0.95,0.85,1.18,1.14c0.24,0.29,0.36,0.45,0.34,0.46c-0.05,0.05-0.54-0.58-1.67-1.41c-1.12-0.82-2.96-1.83-5.45-2.14
						c-1.23-0.15-2.61-0.14-4.02,0.19c-1.42,0.32-2.78,1.03-4.16,1.97c-0.7,0.45-1.44,0.91-2.29,1.24c-0.84,0.33-1.84,0.48-2.8,0.28
						c-1.93-0.41-3.41-1.77-5.18-2.28c-1.77-0.51-3.7-0.21-5.15,0.72c-1.47,0.92-2.65,2.32-4.29,2.99c-1.6,0.68-3.31,0.73-4.81,0.49
						c-1.51-0.25-2.85-0.8-3.97-1.43c-2.24-1.29-3.72-2.76-4.74-3.74c-0.51-0.5-0.89-0.9-1.14-1.17
						C409.59,108.86,409.47,108.71,409.48,108.69z"/>
				</g>
				<g>
					<path class="st3" d="M410.22,87.75c-0.02-0.03,0.21-0.23,0.7-0.45c0.49-0.22,1.26-0.45,2.25-0.46c0.98-0.01,2.17,0.2,3.34,0.8
						c1.17,0.59,2.27,1.59,3.11,2.83c1.7,2.51,1.96,5.31,1.93,7.18c-0.05,1.91-0.34,3.05-0.41,3.04c-0.1-0.01,0.02-1.17-0.04-3.04
						c-0.08-1.84-0.41-4.49-2-6.84c-0.79-1.16-1.79-2.09-2.86-2.66c-1.06-0.58-2.16-0.82-3.07-0.87
						C411.31,87.2,410.26,87.87,410.22,87.75z"/>
				</g>
				<g>
					<path class="st3" d="M407.42,102.14c-0.05,0.03-0.44-0.94-0.2-2.53c0.22-1.57,1.23-3.68,3.13-5.23
						c1.9-1.54,4.04-2.24,5.55-2.61c1.53-0.36,2.5-0.42,2.52-0.35c0.02,0.09-0.92,0.31-2.39,0.78c-1.46,0.47-3.48,1.21-5.27,2.66
						c-1.78,1.45-2.78,3.37-3.1,4.83C407.32,101.17,407.53,102.13,407.42,102.14z"/>
				</g>
			</g>
			<path class="st9" d="M433.32,143.34c-0.57,0.43-0.83,1.2-0.7,1.89c0.13,0.7,0.61,1.31,1.23,1.65c0.62,0.34,1.37,0.42,2.06,0.3
				c0.63-0.11,1.25-0.42,1.58-0.97c0.36-0.6,0.28-1.41-0.11-2c-0.39-0.59-1.05-0.96-1.74-1.11c-0.69-0.15-1.41-0.09-2.1,0.05"/>
			<g>
				<path class="st2" d="M432.3,142.67c0.08-0.02,0.23,0.44,0.66,1.06c0.42,0.62,1.18,1.38,2.23,1.78c1.06,0.4,2.13,0.33,2.85,0.15
					c0.73-0.18,1.15-0.42,1.2-0.35c0.04,0.05-0.32,0.42-1.09,0.71c-0.75,0.29-1.95,0.43-3.15-0.02c-1.19-0.46-1.99-1.36-2.36-2.08
					C432.26,143.2,432.24,142.68,432.3,142.67z"/>
			</g>
		</g>
		<path class="st7" d="M455.62,230.21c0,0-7.01,8.93-9.75,10.21c-2.73,1.28-24.98,1.64-24.86,1.45s7.56-13.5,7.56-13.5l8.01,1.06
			l3.76-6.41l5.44-7.05l4.56-0.31L455.62,230.21z"/>
		<path class="st7" d="M444.82,212.97c0,0,9.77-2.05,9.97-1.94l-0.67,2.14c-1.85,4.41-5.84,4.11-5.84,4.11l-2.19,2.2
			c0,0,3.63,11.07,0.59,15.25c-3.04,4.18-10.11-5.31-10.11-5.31s2.91-8.03,2.99-8.33C439.66,220.79,444.82,212.97,444.82,212.97z"/>
		<path class="st7" d="M454.79,211.03c0,0,2.24,0.35,2.53,2.18c0.29,1.83-1.27,3.68-1.27,3.68s-2.2,2.37-3.77,2.98
			c-1.57,0.61-2.88,1.38-3.71,0.03c-1.16-1.88,0.2-2.63,0.2-2.63L454.79,211.03z"/>
		<path class="st7" d="M456.42,216.39c0,0,3.75,1.31,1.33,4.69c-2.42,3.39-6.63,4.63-8.34,3.76c-1.71-0.87-2.23-1.34-2.51-2.45
			s1.34-2.08,2.24-1.92C450.03,220.63,456.42,216.39,456.42,216.39z"/>
		<path class="st7" d="M457.33,219.36c0,0,3.36,1.17,1.19,4.2c-2.17,3.03-5.93,4.14-7.46,3.37c-1.53-0.78-2-1.2-2.25-2.19
			c-0.25-0.99,1.2-1.86,2-1.72C451.61,223.15,457.33,219.36,457.33,219.36z"/>
		<path class="st7" d="M457.49,223.33c0,0,3.36,1.17,1.19,4.2c-2.17,3.03-5.93,4.14-7.46,3.37c-1.53-0.78-2-1.2-2.25-2.19
			c-0.25-0.99,1.2-1.86,2-1.72C451.77,227.13,457.49,223.33,457.49,223.33z"/>
		<path class="st4" d="M406.32,222.89l28.63,2.55l-2.47,17.19c0,0-31.43-0.53-35.95-1.05c-4.52-0.52-5.14-7.66-5.14-7.66
			L406.32,222.89z"/>
		<path class="st4" d="M425.4,170.04l-19.57-19.66l-16.99-2.82c-2.15-0.3-4.34-0.34-6.47,0.04c-9.01,1.61-11.72,8.52-14.92,15.96
			l-17.59,40.92l-14.4,16.56c0,0-6.64-2.32-3.91,7.05l45.77,31.08c2.71,2.05,6.59,1.67,8.57-0.83l12.94-16.54
			c0,0,20.77-18.68,25.36-29.79C428.77,200.9,425.4,170.04,425.4,170.04z"/>
		<path class="st6" d="M351.06,218.97c0,0-1.21,12.77,10.75,18.19s50.45-9.09,50.45-9.09l7.19-8.52L351.06,218.97z"/>
		<path class="st4" d="M417.91,199.25l-35.28,7.63l9.66-27.18c0,0,6.6-17.74,5.76-23.05c-0.69-4.41-5.6-9.99-12.29-9.35
			c-1.67,0.16-4.47,0.18-6.19,1c-5.77,2.75-8.99,7.18-11.28,13.13c-3.63,9.43-9.01,25.75-9.93,28c0,0-6.73,22.13-7.2,25.83
			c-1.15,9.04,6.91,21.04,19.83,18.87c13.47-2.26,50.94-14.4,50.94-14.4L417.91,199.25z"/>
		<g>
			<path class="st9" d="M456.68,215.87c0.2,0.06-1.41,3.41-5.21,5.78c-0.51,0.22-0.98,0.41-1.51,0.57c-0.54,0.14-1.11,0.11-1.6-0.12
				c-0.49-0.22-0.83-0.68-0.95-1.12c-0.13-0.44-0.11-0.87-0.03-1.24c0.18-0.74,0.54-1.22,0.77-1.54c0.24-0.32,0.4-0.47,0.43-0.45
				c0.03,0.02-0.07,0.22-0.26,0.56c-0.18,0.34-0.47,0.84-0.58,1.5c-0.11,0.62,0.06,1.53,0.82,1.85c0.37,0.16,0.83,0.18,1.27,0.06
				c0.44-0.14,0.95-0.35,1.42-0.55c0.48-0.21,0.94-0.45,1.27-0.75c0.36-0.35,0.71-0.68,1.05-1.01c0.67-0.65,1.26-1.24,1.72-1.76
				C456.23,216.62,456.6,215.84,456.68,215.87z"/>
		</g>
		<g>
			<path class="st9" d="M458.39,220.02c0.05,0.04-0.29,0.7-1.07,1.62c-0.78,0.9-2.06,2.1-3.88,2.67c-1.81,0.57-3.63,0.28-4.68-0.45
				c-0.54-0.38-0.72-0.98-0.66-1.33c0.05-0.37,0.23-0.5,0.25-0.48c0.04,0.02-0.07,0.19-0.05,0.49c0.01,0.3,0.19,0.73,0.67,1.02
				c0.95,0.56,2.65,0.8,4.31,0.26c1.68-0.52,2.94-1.6,3.76-2.42C457.87,220.56,458.33,219.97,458.39,220.02z"/>
		</g>
		<g>
			<path class="st9" d="M458.52,223.56c0.05,0.03-0.25,0.69-1.05,1.52c-0.78,0.83-2.15,1.82-3.95,2.08
				c-0.89,0.14-1.76,0.03-2.5-0.18c-0.74-0.21-1.39-0.6-1.75-1.12c-0.35-0.52-0.38-1.05-0.3-1.38c0.08-0.33,0.23-0.46,0.26-0.45
				c0.04,0.02-0.04,0.18-0.06,0.47c-0.01,0.29,0.07,0.73,0.4,1.13c0.65,0.79,2.27,1.23,3.88,1.01c1.64-0.23,2.95-1.1,3.77-1.83
				C458.05,224.09,458.45,223.51,458.52,223.56z"/>
		</g>
		<g>
			<path class="st9" d="M457.6,228.77c0.05,0.04-0.23,0.44-0.87,0.83c-0.32,0.19-0.73,0.38-1.22,0.51
				c-0.49,0.13-1.07,0.15-1.64,0.05c-1.15-0.21-2.12-0.97-2.29-1.8c-0.09-0.41,0.04-0.75,0.18-0.93c0.14-0.18,0.27-0.22,0.29-0.19
				c0.06,0.04-0.32,0.4-0.11,1.02c0.2,0.59,1.03,1.21,2.03,1.39c1.03,0.21,1.95-0.1,2.59-0.37
				C457.2,228.99,457.55,228.72,457.6,228.77z"/>
		</g>
		<g>
			<path class="st2" d="M384.3,206.26c0.03,0.08-0.97,0.46-2.52,1.17c-1.55,0.71-3.65,1.8-5.82,3.24c-2.17,1.45-3.98,2.97-5.23,4.13
				c-1.26,1.16-1.99,1.93-2.05,1.87c-0.05-0.04,0.59-0.9,1.8-2.14c1.2-1.24,3-2.83,5.2-4.29c2.2-1.46,4.36-2.51,5.97-3.15
				C383.24,206.46,384.28,206.2,384.3,206.26z"/>
		</g>
		<g>
			<path class="st2" d="M365.6,168.77c0,0-0.05,0.2-0.16,0.57c-0.12,0.39-0.3,0.94-0.53,1.66c-0.48,1.47-1.17,3.61-2.06,6.35
				c-1.79,5.51-4.41,13.49-7.53,23.37c-0.77,2.47-1.59,5.06-2.39,7.77c-0.39,1.36-0.82,2.73-1.05,4.17
				c-0.21,1.45-0.33,2.93-0.36,4.45c-0.1,3.02,0.68,6.15,2.31,8.9c0.85,1.35,1.86,2.65,3.12,3.71c0.59,0.58,1.3,1.02,1.97,1.51
				c0.35,0.22,0.73,0.41,1.09,0.62c0.36,0.22,0.74,0.41,1.13,0.56c1.52,0.74,3.22,1.12,4.92,1.4c0.86,0.07,1.73,0.19,2.61,0.14
				c0.44-0.02,0.88,0.01,1.32-0.05l1.32-0.16c3.52-0.55,7.08-1.44,10.69-2.36c3.61-0.93,7.26-1.95,10.96-3.01
				c3.7-1.07,7.46-2.13,11.22-3.34c6.03-1.88,11.94-3.73,17.69-5.53l-0.18,0.29c-1.39-7.09-2.74-13.94-4.02-20.49l0.29,0.19
				c-13.17,2.83-25.11,5.4-35.29,7.58l-0.34,0.07l0.12-0.33c4.01-11.34,7.26-20.54,9.51-26.93c1.13-3.17,2.01-5.64,2.62-7.33
				c0.3-0.82,0.53-1.46,0.7-1.9c0.16-0.43,0.26-0.64,0.26-0.64s-0.06,0.23-0.2,0.66c-0.15,0.45-0.37,1.09-0.64,1.92
				c-0.58,1.7-1.43,4.19-2.52,7.37c-2.22,6.4-5.41,15.63-9.35,26.99l-0.23-0.26c10.17-2.21,22.1-4.81,35.26-7.68l0.24-0.05
				l0.05,0.24c1.29,6.54,2.64,13.4,4.04,20.49l0.04,0.23l-0.22,0.07c-5.75,1.8-11.67,3.65-17.7,5.53
				c-3.77,1.21-7.53,2.27-11.23,3.34c-3.7,1.06-7.36,2.08-10.98,3.01c-3.62,0.92-7.18,1.8-10.74,2.36l-1.35,0.16
				c-0.45,0.06-0.9,0.03-1.35,0.04c-0.9,0.05-1.79-0.07-2.67-0.15c-1.75-0.29-3.48-0.68-5.05-1.44c-0.41-0.16-0.79-0.35-1.16-0.58
				c-0.37-0.22-0.76-0.41-1.12-0.64c-0.69-0.51-1.42-0.96-2.03-1.56c-1.3-1.09-2.33-2.43-3.2-3.83c-1.68-2.84-2.46-6.06-2.35-9.14
				c0.03-1.53,0.16-3.04,0.38-4.5c0.24-1.47,0.68-2.86,1.08-4.22c0.81-2.72,1.64-5.3,2.42-7.77c3.17-9.87,5.84-17.83,7.69-23.32
				c0.93-2.73,1.65-4.86,2.15-6.32c0.25-0.71,0.44-1.25,0.57-1.64C365.52,168.96,365.6,168.77,365.6,168.77z"/>
		</g>
		<g>
			<path class="st2" d="M390.88,147.63c0.01-0.03,0.31,0.05,0.83,0.28c0.51,0.22,1.24,0.6,2.05,1.2c1.59,1.19,3.61,3.35,4.4,6.4
				c0.35,1.53,0.23,3.03,0.06,4.33c-0.18,1.31-0.46,2.47-0.7,3.43c-0.5,1.93-0.86,3.1-0.93,3.08c-0.07-0.02,0.17-1.22,0.57-3.16
				c0.2-0.97,0.43-2.12,0.58-3.41c0.15-1.28,0.24-2.73-0.09-4.16c-0.74-2.87-2.63-5.01-4.12-6.23
				C392,148.16,390.84,147.72,390.88,147.63z"/>
		</g>
		<g>
			<path class="st2" d="M398.82,241.8c-0.02-0.03,0.24-0.33,0.75-0.86c0.59-0.6,1.31-1.35,2.16-2.22c1.83-1.86,4.36-4.44,7.1-7.33
				c2.74-2.89,5.16-5.57,6.91-7.51c0.82-0.9,1.51-1.67,2.08-2.3c0.5-0.54,0.78-0.82,0.81-0.8c0.03,0.02-0.21,0.35-0.66,0.93
				c-0.45,0.58-1.11,1.4-1.95,2.41c-1.68,2.01-4.06,4.73-6.81,7.63c-2.74,2.9-5.32,5.44-7.22,7.24c-0.95,0.9-1.73,1.62-2.28,2.1
				C399.16,241.57,398.84,241.82,398.82,241.8z"/>
		</g>
		<g>
			<g>
				<path class="st3" d="M455.65,316.33c0-15-0.03-30-0.45-44.99c-0.3-10.73-0.77-21.48-2-32.15c-0.9-7.74-2.13-15.53-4.56-22.96
					c-2.65-8.12-7.12-15.54-11.73-22.68c-3.79-5.86-8.09-11.33-12.43-16.79c-4.81-6.06-9.63-12.12-14.81-17.87
					c-2.43-2.7-4.93-5.33-7.58-7.81c-2.73-2.57-5.59-5.2-9.07-6.7c-7.05-3.05-14.36-0.69-20.47,3.36
					c-6.22,4.12-11.23,9.36-16.48,14.57c-7.67,7.62-15.35,15.23-23.02,22.85c-10.95,10.87-21.9,21.74-32.85,32.61
					c-12.28,12.18-24.55,24.37-36.83,36.56c-11.65,11.56-23.3,23.13-34.95,34.69c-9.07,9.01-18.14,18.01-27.22,27.02
					c-4.54,4.51-9.09,9.02-13.63,13.53c-0.2,0.2-0.4,0.4-0.6,0.59c-2.15,2.13,1.17,5.46,3.33,3.33c3.12-3.1,6.24-6.2,9.36-9.3
					c8.03-7.97,16.07-15.95,24.1-23.92c11.05-10.97,22.1-21.94,33.15-32.91c12.24-12.15,24.48-24.29,36.71-36.44
					c11.4-11.32,22.8-22.63,34.2-33.95c8.73-8.66,17.46-17.33,26.19-25.99c4.17-4.14,8.32-8.31,12.51-12.42
					c1.68-1.64,3.51-3.15,5.37-4.58c5.17-4,11.8-8,18.51-5.59c3.26,1.17,5.87,3.71,8.35,6.04c2.76,2.59,5.36,5.34,7.89,8.16
					c5.06,5.65,9.78,11.59,14.5,17.53c7.44,9.37,14.49,19.11,19.88,29.83c0.32,0.64,0.63,1.29,0.93,1.94c0.15,0.33,0.3,0.67,0.44,1
					c0.25,0.57-0.19-0.46,0.05,0.12c0.07,0.17,0.14,0.35,0.21,0.52c0.6,1.5,1.14,3.02,1.63,4.55c1.07,3.36,1.89,6.8,2.56,10.26
					c1.7,8.79,2.44,17.58,2.98,26.71c0.74,12.64,0.94,25.3,1.05,37.96c0.07,7.78,0.08,15.56,0.08,23.34
					C450.95,319.36,455.65,319.36,455.65,316.33L455.65,316.33z"/>
			</g>
			<g>
				<g>
					<g>
						<path class="st2" d="M220.11,304.02c-0.15,0.06-0.58-0.99-1.54-1.91c-0.95-0.94-2.04-1.22-2.01-1.36
							c-0.01-0.15,1.29-0.07,2.37,0.99C220.01,302.77,220.24,304,220.11,304.02z"/>
					</g>
				</g>
				<g>
					<g>
						<path class="st2" d="M217.56,306.72c-0.15,0.06-0.58-0.99-1.54-1.91c-0.95-0.94-2.04-1.22-2.01-1.36
							c-0.01-0.15,1.29-0.07,2.37,0.99C217.46,305.47,217.69,306.7,217.56,306.72z"/>
					</g>
				</g>
				<g>
					<g>
						<path class="st2" d="M214.71,309.42c-0.15,0.06-0.58-0.99-1.54-1.91c-0.95-0.94-2.04-1.22-2.01-1.36
							c-0.01-0.15,1.29-0.07,2.37,0.99C214.61,308.17,214.84,309.4,214.71,309.42z"/>
					</g>
				</g>
				<g>
					<g>
						<path class="st2" d="M211.97,312.25c-0.15,0.06-0.58-0.99-1.54-1.91c-0.95-0.94-2.04-1.22-2.01-1.36
							c-0.01-0.15,1.29-0.07,2.37,0.99C211.86,311,212.1,312.23,211.97,312.25z"/>
					</g>
				</g>
				<g>
					<g>
						<path class="st2" d="M208.95,315.06c-0.15,0.06-0.58-0.99-1.54-1.91c-0.95-0.94-2.04-1.22-2.01-1.36
							c-0.01-0.15,1.29-0.07,2.37,0.99C208.85,313.81,209.08,315.04,208.95,315.06z"/>
					</g>
				</g>
				<g>
					<g>
						<path class="st2" d="M205.93,318.11c-0.15,0.06-0.58-0.99-1.54-1.91c-0.95-0.94-2.04-1.22-2.01-1.36
							c-0.01-0.15,1.29-0.07,2.37,0.99C205.83,316.86,206.06,318.09,205.93,318.11z"/>
					</g>
				</g>
				<g>
					<g>
						<path class="st2" d="M202.72,321.38c-0.15,0.06-0.58-0.99-1.54-1.91c-0.95-0.94-2.04-1.22-2.01-1.36
							c-0.01-0.15,1.29-0.07,2.37,0.99C202.62,320.13,202.85,321.36,202.72,321.38z"/>
					</g>
				</g>
				<g>
					<g>
						<path class="st2" d="M199.38,324.49c-0.15,0.06-0.58-0.99-1.54-1.91c-0.95-0.94-2.04-1.22-2.01-1.36
							c-0.01-0.15,1.29-0.07,2.37,0.99C199.27,323.24,199.51,324.47,199.38,324.49z"/>
					</g>
				</g>
				<g>
					<g>
						<path class="st2" d="M196.03,327.61c-0.15,0.06-0.58-0.99-1.54-1.91c-0.95-0.94-2.04-1.22-2.01-1.36
							c-0.01-0.15,1.29-0.07,2.37,0.99C195.92,326.36,196.16,327.59,196.03,327.61z"/>
					</g>
				</g>
				<g>
					<g>
						<path class="st2" d="M192.68,330.73c-0.15,0.06-0.58-0.99-1.54-1.91c-0.95-0.94-2.04-1.22-2.01-1.36
							c-0.01-0.15,1.29-0.07,2.37,0.99C192.58,329.48,192.81,330.71,192.68,330.73z"/>
					</g>
				</g>
				<g>
					<g>
						<path class="st2" d="M190.69,333.71c-0.11,0.11-0.94-0.65-2.21-1.07c-1.26-0.45-2.37-0.24-2.4-0.38
							c-0.07-0.13,1.14-0.61,2.57-0.11C190.06,332.62,190.8,333.64,190.69,333.71z"/>
					</g>
				</g>
				<g>
					<g>
						<path class="st2" d="M189.99,337.97c-0.11,0.11-0.94-0.65-2.21-1.07c-1.26-0.45-2.37-0.24-2.4-0.38
							c-0.07-0.13,1.14-0.61,2.57-0.11C189.36,336.88,190.1,337.9,189.99,337.97z"/>
					</g>
				</g>
				<g>
					<g>
						<path class="st2" d="M189.12,342.44c-0.11,0.11-0.94-0.65-2.21-1.07c-1.26-0.45-2.37-0.23-2.4-0.38
							c-0.07-0.13,1.14-0.61,2.57-0.11C188.5,341.35,189.23,342.36,189.12,342.44z"/>
					</g>
				</g>
				<g>
					<g>
						<path class="st2" d="M188.15,347.28c-0.11,0.11-0.94-0.65-2.21-1.07c-1.26-0.45-2.37-0.24-2.4-0.38
							c-0.07-0.13,1.14-0.61,2.57-0.11C187.53,346.19,188.26,347.2,188.15,347.28z"/>
					</g>
				</g>
				<g>
					<g>
						<path class="st2" d="M187.37,351.55c-0.11,0.11-0.94-0.65-2.21-1.07c-1.26-0.45-2.37-0.23-2.4-0.38
							c-0.07-0.13,1.14-0.61,2.57-0.11C186.74,350.46,187.48,351.48,187.37,351.55z"/>
					</g>
				</g>
				<g>
					<g>
						<path class="st2" d="M186.59,355.82c-0.11,0.11-0.94-0.65-2.21-1.07c-1.26-0.45-2.37-0.23-2.4-0.38
							c-0.07-0.13,1.14-0.61,2.57-0.11C185.96,354.74,186.7,355.75,186.59,355.82z"/>
					</g>
				</g>
				<g>
					<g>
						<path class="st2" d="M185.8,360.1c-0.11,0.11-0.94-0.65-2.21-1.07c-1.26-0.45-2.37-0.24-2.4-0.38
							c-0.07-0.13,1.14-0.61,2.57-0.11C185.18,359.01,185.91,360.02,185.8,360.1z"/>
					</g>
				</g>
				<g>
					<g>
						<path class="st2" d="M185.37,364.51c-0.1,0.12-0.98-0.6-2.26-0.95c-1.28-0.38-2.38-0.11-2.42-0.25
							c-0.08-0.12,1.11-0.68,2.56-0.26C184.69,363.46,185.48,364.43,185.37,364.51z"/>
					</g>
				</g>
				<g>
					<g>
						<path class="st2" d="M184.56,368.8c-0.09,0.13-1.03-0.51-2.34-0.74c-1.31-0.26-2.38,0.11-2.43-0.03
							c-0.09-0.12,1.04-0.77,2.52-0.48C183.79,367.81,184.66,368.71,184.56,368.8z"/>
					</g>
				</g>
				<g>
					<g>
						<path class="st2" d="M183.69,372.38c-0.09,0.13-1.03-0.51-2.34-0.74c-1.31-0.26-2.38,0.11-2.43-0.03
							c-0.09-0.12,1.04-0.77,2.52-0.48C182.92,371.39,183.79,372.29,183.69,372.38z"/>
					</g>
				</g>
				<g>
					<g>
						<path class="st2" d="M183.27,376.16c-0.08,0.13-1.06-0.45-2.38-0.6c-1.33-0.18-2.36,0.25-2.43,0.12
							c-0.1-0.11,0.99-0.83,2.49-0.63C182.43,375.22,183.36,376.07,183.27,376.16z"/>
					</g>
				</g>
				<g>
					<g>
						<path class="st2" d="M182.62,379.78c-0.08,0.13-1.06-0.45-2.38-0.6c-1.33-0.18-2.36,0.25-2.43,0.12
							c-0.1-0.11,0.99-0.83,2.49-0.63C181.78,378.84,182.71,379.69,182.62,379.78z"/>
					</g>
				</g>
				<g>
					<g>
						<path class="st2" d="M181.97,383.41c-0.08,0.13-1.06-0.45-2.38-0.6c-1.33-0.18-2.36,0.25-2.43,0.12
							c-0.1-0.11,0.99-0.83,2.49-0.63C181.13,382.47,182.06,383.31,181.97,383.41z"/>
					</g>
				</g>
				<g>
					<g>
						<path class="st2" d="M181.32,387.03c-0.08,0.13-1.06-0.45-2.38-0.6c-1.33-0.18-2.36,0.25-2.43,0.12
							c-0.1-0.11,0.99-0.83,2.49-0.63C180.48,386.09,181.41,386.94,181.32,387.03z"/>
					</g>
				</g>
				<g>
					<g>
						<path class="st2" d="M180.67,390.65c-0.08,0.13-1.06-0.45-2.38-0.6c-1.33-0.18-2.36,0.25-2.43,0.12
							c-0.1-0.11,0.99-0.83,2.49-0.63C179.83,389.71,180.76,390.56,180.67,390.65z"/>
					</g>
				</g>
				<g>
					<g>
						<path class="st2" d="M180.08,394.87c-0.08,0.13-1.06-0.45-2.38-0.6c-1.33-0.18-2.36,0.25-2.43,0.12
							c-0.1-0.11,0.99-0.83,2.49-0.63C179.24,393.93,180.17,394.78,180.08,394.87z"/>
					</g>
				</g>
				<g>
					<g>
						<path class="st2" d="M179.49,399.08c-0.08,0.13-1.06-0.45-2.38-0.6c-1.33-0.18-2.36,0.25-2.43,0.12
							c-0.1-0.11,0.99-0.83,2.49-0.63C178.66,398.15,179.58,398.99,179.49,399.08z"/>
					</g>
				</g>
				<g>
					<g>
						<path class="st2" d="M178.8,403.05c-0.08,0.13-1.06-0.45-2.38-0.6c-1.33-0.18-2.36,0.25-2.43,0.12
							c-0.1-0.11,0.99-0.83,2.49-0.63C177.97,402.12,178.89,402.96,178.8,403.05z"/>
					</g>
				</g>
				<g>
					<g>
						<path class="st2" d="M178.11,407.02c-0.08,0.13-1.06-0.45-2.38-0.6c-1.33-0.18-2.36,0.25-2.43,0.12
							c-0.1-0.11,0.99-0.83,2.49-0.63C177.27,406.08,178.2,406.93,178.11,407.02z"/>
					</g>
				</g>
				<g>
					<g>
						<path class="st2" d="M177.42,410.99c-0.08,0.13-1.06-0.45-2.38-0.6c-1.33-0.18-2.36,0.25-2.43,0.12
							c-0.1-0.11,0.99-0.83,2.49-0.63C176.58,410.05,177.51,410.9,177.42,410.99z"/>
					</g>
				</g>
				<g>
					<g>
						<path class="st2" d="M176.73,414.96c-0.08,0.13-1.06-0.45-2.38-0.6c-1.33-0.18-2.36,0.25-2.43,0.12
							c-0.1-0.11,0.99-0.83,2.49-0.63C175.89,414.02,176.82,414.87,176.73,414.96z"/>
					</g>
				</g>
				<g>
					<g>
						<path class="st2" d="M176.03,418.93c-0.08,0.13-1.06-0.45-2.38-0.6c-1.33-0.18-2.36,0.25-2.43,0.12
							c-0.1-0.11,0.99-0.83,2.49-0.63C175.2,417.99,176.13,418.84,176.03,418.93z"/>
					</g>
				</g>
				<g>
					<g>
						<path class="st2" d="M175.34,422.9c-0.08,0.13-1.06-0.45-2.38-0.6c-1.33-0.18-2.36,0.25-2.43,0.12
							c-0.1-0.11,0.99-0.83,2.49-0.63C174.51,421.96,175.43,422.81,175.34,422.9z"/>
					</g>
				</g>
				<g>
					<g>
						<path class="st2" d="M174.65,426.87c-0.08,0.13-1.06-0.45-2.38-0.6c-1.33-0.18-2.36,0.25-2.43,0.12
							c-0.1-0.11,0.99-0.83,2.49-0.63C173.82,425.93,174.74,426.78,174.65,426.87z"/>
					</g>
				</g>
				<g>
					<g>
						<path class="st2" d="M173.96,430.84c-0.08,0.13-1.06-0.45-2.38-0.6c-1.33-0.18-2.36,0.25-2.43,0.12
							c-0.1-0.11,0.99-0.83,2.49-0.63C173.13,429.9,174.05,430.75,173.96,430.84z"/>
					</g>
				</g>
				<g>
					<g>
						<path class="st2" d="M173.27,434.81c-0.08,0.13-1.06-0.45-2.38-0.6c-1.33-0.18-2.36,0.25-2.43,0.12
							c-0.1-0.11,0.99-0.83,2.49-0.63C172.44,433.87,173.36,434.71,173.27,434.81z"/>
					</g>
				</g>
				<g>
					<g>
						<path class="st2" d="M172.58,438.78c-0.08,0.13-1.06-0.45-2.38-0.6c-1.33-0.18-2.36,0.25-2.43,0.12
							c-0.1-0.11,0.99-0.83,2.49-0.63C171.74,437.84,172.67,438.68,172.58,438.78z"/>
					</g>
				</g>
				<g>
					<g>
						<path class="st2" d="M171.89,442.75c-0.08,0.13-1.06-0.45-2.38-0.6c-1.33-0.18-2.36,0.25-2.43,0.12
							c-0.1-0.11,0.99-0.83,2.49-0.63C171.05,441.81,171.98,442.65,171.89,442.75z"/>
					</g>
				</g>
				<g>
					<g>
						<path class="st2" d="M171.2,446.72c-0.08,0.13-1.06-0.45-2.38-0.6c-1.33-0.18-2.36,0.25-2.43,0.12
							c-0.1-0.11,0.99-0.83,2.49-0.63C170.36,445.78,171.29,446.62,171.2,446.72z"/>
					</g>
				</g>
				<g>
					<g>
						<path class="st2" d="M170.5,450.69c-0.08,0.13-1.06-0.45-2.38-0.6c-1.33-0.18-2.36,0.25-2.43,0.12
							c-0.1-0.11,0.99-0.83,2.49-0.63C169.67,449.75,170.6,450.59,170.5,450.69z"/>
					</g>
				</g>
				<g>
					<g>
						<path class="st2" d="M169.81,454.65c-0.08,0.13-1.06-0.45-2.38-0.6c-1.33-0.18-2.36,0.25-2.43,0.12
							c-0.1-0.11,0.99-0.83,2.49-0.63C168.98,453.72,169.9,454.56,169.81,454.65z"/>
					</g>
				</g>
				<g>
					<g>
						<path class="st2" d="M169.12,458.62c-0.08,0.13-1.06-0.45-2.38-0.6c-1.33-0.18-2.36,0.25-2.43,0.12
							c-0.1-0.11,0.99-0.83,2.49-0.63C168.29,457.69,169.21,458.53,169.12,458.62z"/>
					</g>
				</g>
				<g>
					<g>
						<path class="st2" d="M168.43,462.59c-0.08,0.13-1.06-0.45-2.38-0.6c-1.33-0.18-2.36,0.25-2.43,0.12
							c-0.1-0.11,0.99-0.83,2.49-0.63C167.6,461.65,168.52,462.5,168.43,462.59z"/>
					</g>
				</g>
				<g>
					<g>
						<path class="st2" d="M222.96,301.17c-0.15,0.06-0.58-0.99-1.54-1.91c-0.95-0.94-2.04-1.22-2.01-1.36
							c-0.01-0.15,1.29-0.07,2.37,0.99C222.86,299.92,223.09,301.15,222.96,301.17z"/>
					</g>
				</g>
				<g>
					<g>
						<path class="st2" d="M225.7,298.44c-0.15,0.06-0.58-0.99-1.54-1.91c-0.95-0.94-2.04-1.22-2.01-1.36
							c-0.01-0.15,1.29-0.07,2.37,0.99C225.6,297.19,225.83,298.42,225.7,298.44z"/>
					</g>
				</g>
				<g>
					<g>
						<path class="st2" d="M228.43,295.7c-0.15,0.06-0.58-0.99-1.54-1.91c-0.95-0.94-2.04-1.22-2.01-1.36
							c-0.01-0.15,1.29-0.07,2.37,0.99C228.33,294.45,228.56,295.68,228.43,295.7z"/>
					</g>
				</g>
				<g>
					<g>
						<path class="st2" d="M231.17,292.97c-0.15,0.06-0.58-0.99-1.54-1.91c-0.95-0.94-2.04-1.22-2.01-1.36
							c-0.01-0.15,1.29-0.07,2.37,0.99C231.06,291.72,231.3,292.95,231.17,292.97z"/>
					</g>
				</g>
				<g>
					<g>
						<path class="st2" d="M233.9,290.23c-0.15,0.06-0.58-0.99-1.54-1.91c-0.95-0.94-2.04-1.22-2.01-1.36
							c-0.01-0.15,1.29-0.07,2.37,0.99C233.8,288.98,234.03,290.21,233.9,290.23z"/>
					</g>
				</g>
				<g>
					<g>
						<path class="st2" d="M236.64,287.5c-0.15,0.06-0.58-0.99-1.54-1.91c-0.95-0.94-2.04-1.22-2.01-1.36
							c-0.01-0.15,1.29-0.07,2.37,0.99C236.53,286.25,236.77,287.48,236.64,287.5z"/>
					</g>
				</g>
				<g>
					<g>
						<path class="st2" d="M239.37,284.76c-0.15,0.06-0.58-0.99-1.54-1.91c-0.95-0.94-2.04-1.22-2.01-1.36
							c-0.01-0.15,1.29-0.07,2.37,0.99C239.27,283.51,239.5,284.74,239.37,284.76z"/>
					</g>
				</g>
				<g>
					<g>
						<path class="st2" d="M242.11,282.03c-0.15,0.06-0.58-0.99-1.54-1.91c-0.95-0.94-2.04-1.22-2.01-1.36
							c-0.01-0.15,1.29-0.07,2.37,0.99C242,280.78,242.24,282.01,242.11,282.03z"/>
					</g>
				</g>
				<g>
					<g>
						<path class="st2" d="M244.84,279.29c-0.15,0.06-0.58-0.99-1.54-1.91c-0.95-0.94-2.04-1.22-2.01-1.36
							c-0.01-0.15,1.29-0.07,2.37,0.99C244.74,278.04,244.97,279.27,244.84,279.29z"/>
					</g>
				</g>
				<g>
					<g>
						<path class="st2" d="M247.58,276.56c-0.15,0.06-0.58-0.99-1.54-1.91c-0.95-0.94-2.04-1.22-2.01-1.36
							c-0.01-0.15,1.29-0.07,2.37,0.99C247.47,275.31,247.71,276.54,247.58,276.56z"/>
					</g>
				</g>
				<g>
					<g>
						<path class="st2" d="M250.31,273.82c-0.15,0.06-0.58-0.99-1.54-1.91c-0.95-0.94-2.04-1.22-2.01-1.36
							c-0.01-0.15,1.29-0.07,2.37,0.99C250.21,272.57,250.44,273.8,250.31,273.82z"/>
					</g>
				</g>
				<g>
					<g>
						<path class="st2" d="M253.05,271.09c-0.15,0.06-0.58-0.99-1.54-1.91c-0.95-0.94-2.04-1.22-2.01-1.36
							c-0.01-0.15,1.29-0.07,2.37,0.99C252.94,269.84,253.18,271.07,253.05,271.09z"/>
					</g>
				</g>
				<g>
					<g>
						<path class="st2" d="M255.9,268.51c-0.15,0.06-0.58-0.99-1.54-1.91c-0.95-0.94-2.04-1.22-2.01-1.36
							c-0.01-0.15,1.29-0.07,2.37,0.99C255.79,267.25,256.03,268.49,255.9,268.51z"/>
					</g>
				</g>
				<g>
					<g>
						<path class="st2" d="M258.69,265.77c-0.15,0.06-0.58-0.99-1.54-1.91c-0.95-0.94-2.04-1.22-2.01-1.36
							c-0.01-0.15,1.29-0.07,2.37,0.99C258.59,264.52,258.82,265.75,258.69,265.77z"/>
					</g>
				</g>
				<g>
					<g>
						<path class="st2" d="M261.41,263.02c-0.15,0.06-0.58-0.99-1.54-1.91c-0.95-0.94-2.04-1.22-2.01-1.36
							c-0.01-0.15,1.29-0.07,2.37,0.99C261.3,261.76,261.54,263,261.41,263.02z"/>
					</g>
				</g>
				<g>
					<g>
						<path class="st2" d="M264.09,260.23c-0.15,0.06-0.58-0.99-1.54-1.91c-0.95-0.94-2.04-1.22-2.01-1.36
							c-0.01-0.15,1.29-0.07,2.37,0.99C263.98,258.98,264.22,260.21,264.09,260.23z"/>
					</g>
				</g>
				<g>
					<g>
						<path class="st2" d="M266.91,257.42c-0.15,0.06-0.58-0.99-1.54-1.91c-0.95-0.94-2.04-1.22-2.01-1.36
							c-0.01-0.15,1.29-0.07,2.37,0.99C266.81,256.16,267.04,257.4,266.91,257.42z"/>
					</g>
				</g>
				<g>
					<g>
						<path class="st2" d="M269.56,254.82c-0.15,0.06-0.58-0.99-1.54-1.91c-0.95-0.94-2.04-1.22-2.01-1.36
							c-0.01-0.15,1.29-0.07,2.37,0.99C269.45,253.56,269.69,254.79,269.56,254.82z"/>
					</g>
				</g>
				<g>
					<g>
						<path class="st2" d="M272.38,252.17c-0.15,0.06-0.58-0.99-1.54-1.91c-0.95-0.94-2.04-1.22-2.01-1.36
							c-0.01-0.15,1.29-0.07,2.37,0.99C272.27,250.92,272.51,252.15,272.38,252.17z"/>
					</g>
				</g>
				<g>
					<g>
						<path class="st2" d="M274.92,249.21c-0.15,0.06-0.58-0.99-1.54-1.91c-0.95-0.94-2.04-1.22-2.01-1.36
							c-0.01-0.15,1.29-0.07,2.37,0.99C274.82,247.96,275.05,249.19,274.92,249.21z"/>
					</g>
				</g>
				<g>
					<g>
						<path class="st2" d="M278.04,246.64c-0.15,0.06-0.58-0.99-1.54-1.91c-0.95-0.94-2.04-1.22-2.01-1.36
							c-0.01-0.15,1.29-0.07,2.37,0.99C277.94,245.38,278.17,246.62,278.04,246.64z"/>
					</g>
				</g>
				<g>
					<g>
						<path class="st2" d="M280.66,244.12c-0.15,0.06-0.58-0.99-1.54-1.91c-0.95-0.94-2.04-1.22-2.01-1.36
							c-0.01-0.15,1.29-0.07,2.37,0.99C280.56,242.87,280.79,244.1,280.66,244.12z"/>
					</g>
				</g>
				<g>
					<g>
						<path class="st2" d="M283.16,241.51c-0.15,0.06-0.58-0.99-1.54-1.91c-0.95-0.94-2.04-1.22-2.01-1.36
							c-0.01-0.15,1.29-0.07,2.37,0.99C283.06,240.26,283.29,241.49,283.16,241.51z"/>
					</g>
				</g>
				<g>
					<g>
						<path class="st2" d="M286.04,238.58c-0.15,0.06-0.58-0.99-1.54-1.91c-0.95-0.94-2.04-1.22-2.01-1.36
							c-0.01-0.15,1.29-0.07,2.37,0.99C285.93,237.32,286.17,238.56,286.04,238.58z"/>
					</g>
				</g>
				<g>
					<g>
						<path class="st2" d="M288.91,235.85c-0.15,0.06-0.58-0.99-1.54-1.91c-0.95-0.94-2.04-1.22-2.01-1.36
							c-0.01-0.15,1.29-0.07,2.37,0.99C288.8,234.6,289.04,235.83,288.91,235.85z"/>
					</g>
				</g>
				<g>
					<g>
						<path class="st2" d="M291.63,233.03c-0.15,0.06-0.58-0.99-1.54-1.91c-0.95-0.94-2.04-1.22-2.01-1.36
							c-0.01-0.15,1.29-0.07,2.37,0.99C291.53,231.78,291.76,233.01,291.63,233.03z"/>
					</g>
				</g>
				<g>
					<g>
						<path class="st2" d="M294.07,230.39c-0.15,0.06-0.58-0.99-1.54-1.91c-0.95-0.94-2.04-1.22-2.01-1.36
							c-0.01-0.15,1.29-0.07,2.37,0.99C293.96,229.14,294.2,230.37,294.07,230.39z"/>
					</g>
				</g>
				<g>
					<g>
						<path class="st2" d="M296.99,227.69c-0.15,0.06-0.58-0.99-1.54-1.91c-0.95-0.94-2.04-1.22-2.01-1.36
							c-0.01-0.15,1.29-0.07,2.37,0.99C296.89,226.44,297.12,227.67,296.99,227.69z"/>
					</g>
				</g>
				<g>
					<g>
						<path class="st2" d="M299.79,224.9c-0.15,0.06-0.58-0.99-1.54-1.91c-0.95-0.94-2.04-1.22-2.01-1.36
							c-0.01-0.15,1.29-0.07,2.37,0.99C299.69,223.65,299.92,224.88,299.79,224.9z"/>
					</g>
				</g>
				<g>
					<g>
						<path class="st2" d="M302.59,222.21c-0.15,0.06-0.58-0.99-1.54-1.91c-0.95-0.94-2.04-1.22-2.01-1.36
							c-0.01-0.15,1.29-0.07,2.37,0.99C302.48,220.95,302.72,222.19,302.59,222.21z"/>
					</g>
				</g>
				<g>
					<g>
						<path class="st2" d="M305.19,219.53c-0.15,0.06-0.58-0.99-1.54-1.91c-0.95-0.94-2.04-1.22-2.01-1.36
							c-0.01-0.15,1.29-0.07,2.37,0.99C305.09,218.28,305.32,219.51,305.19,219.53z"/>
					</g>
				</g>
				<g>
					<g>
						<path class="st2" d="M307.91,216.82c-0.15,0.06-0.58-0.99-1.54-1.91c-0.95-0.94-2.04-1.22-2.01-1.36
							c-0.01-0.15,1.29-0.07,2.37,0.99C307.81,215.57,308.04,216.8,307.91,216.82z"/>
					</g>
				</g>
				<g>
					<g>
						<path class="st2" d="M310.78,213.85c-0.15,0.06-0.58-0.99-1.54-1.91c-0.95-0.94-2.04-1.22-2.01-1.36
							c-0.01-0.15,1.29-0.07,2.37,0.99C310.67,212.6,310.91,213.83,310.78,213.85z"/>
					</g>
				</g>
				<g>
					<g>
						<path class="st2" d="M313.69,211.12c-0.15,0.06-0.58-0.99-1.54-1.91c-0.95-0.94-2.04-1.22-2.01-1.36
							c-0.01-0.15,1.29-0.07,2.37,0.99C313.59,209.87,313.82,211.1,313.69,211.12z"/>
					</g>
				</g>
				<g>
					<g>
						<path class="st2" d="M316.3,208.48c-0.15,0.06-0.58-0.99-1.54-1.91c-0.95-0.94-2.04-1.22-2.01-1.36
							c-0.01-0.15,1.29-0.07,2.37,0.99C316.2,207.23,316.43,208.46,316.3,208.48z"/>
					</g>
				</g>
				<g>
					<g>
						<path class="st2" d="M318.94,205.77c-0.15,0.06-0.58-0.99-1.54-1.91c-0.95-0.94-2.04-1.22-2.01-1.36
							c-0.01-0.15,1.29-0.07,2.37,0.99C318.84,204.52,319.07,205.75,318.94,205.77z"/>
					</g>
				</g>
				<g>
					<g>
						<path class="st2" d="M321.79,202.95c-0.15,0.06-0.58-0.99-1.54-1.91c-0.95-0.94-2.04-1.22-2.01-1.36
							c-0.01-0.15,1.29-0.07,2.37,0.99C321.69,201.7,321.92,202.93,321.79,202.95z"/>
					</g>
				</g>
				<g>
					<g>
						<path class="st2" d="M324.52,200.34c-0.15,0.06-0.58-0.99-1.54-1.91c-0.95-0.94-2.04-1.22-2.01-1.36
							c-0.01-0.15,1.29-0.07,2.37,0.99C324.42,199.09,324.65,200.32,324.52,200.34z"/>
					</g>
				</g>
				<g>
					<g>
						<path class="st2" d="M327.23,197.79c-0.15,0.06-0.58-0.99-1.54-1.91c-0.95-0.94-2.04-1.22-2.01-1.36
							c-0.01-0.15,1.29-0.07,2.37,0.99C327.13,196.54,327.36,197.77,327.23,197.79z"/>
					</g>
				</g>
				<g>
					<g>
						<path class="st2" d="M329.84,195.05c-0.15,0.06-0.58-0.99-1.54-1.91c-0.95-0.94-2.04-1.22-2.01-1.36
							c-0.01-0.15,1.29-0.07,2.37,0.99C329.74,193.8,329.97,195.03,329.84,195.05z"/>
					</g>
				</g>
				<g>
					<g>
						<path class="st2" d="M332.66,192.13c-0.15,0.06-0.58-0.99-1.54-1.91c-0.95-0.94-2.04-1.22-2.01-1.36
							c-0.01-0.15,1.29-0.07,2.37,0.99C332.55,190.88,332.79,192.11,332.66,192.13z"/>
					</g>
				</g>
				<g>
					<g>
						<path class="st2" d="M335.5,189.58c-0.15,0.06-0.58-0.99-1.54-1.91c-0.95-0.94-2.04-1.22-2.01-1.36
							c-0.01-0.15,1.29-0.07,2.37,0.99C335.4,188.33,335.63,189.56,335.5,189.58z"/>
					</g>
				</g>
				<g>
					<g>
						<path class="st2" d="M338.39,186.64c-0.15,0.06-0.58-0.99-1.54-1.91c-0.95-0.94-2.04-1.22-2.01-1.36
							c-0.01-0.15,1.29-0.07,2.37,0.99C338.28,185.39,338.52,186.62,338.39,186.64z"/>
					</g>
				</g>
				<g>
					<g>
						<path class="st2" d="M341.08,183.95c-0.15,0.06-0.58-0.99-1.54-1.91c-0.95-0.94-2.04-1.22-2.01-1.36
							c-0.01-0.15,1.29-0.07,2.37,0.99C340.98,182.7,341.21,183.93,341.08,183.95z"/>
					</g>
				</g>
				<g>
					<g>
						<path class="st2" d="M343.94,181.21c-0.15,0.06-0.58-0.99-1.54-1.91c-0.95-0.94-2.04-1.22-2.01-1.36
							c-0.01-0.15,1.29-0.07,2.37,0.99C343.83,179.96,344.07,181.19,343.94,181.21z"/>
					</g>
				</g>
				<g>
					<g>
						<path class="st2" d="M346.56,178.4c-0.15,0.06-0.58-0.99-1.54-1.91c-0.95-0.94-2.04-1.22-2.01-1.36
							c-0.01-0.15,1.29-0.07,2.37,0.99C346.45,177.15,346.69,178.38,346.56,178.4z"/>
					</g>
				</g>
				<g>
					<g>
						<path class="st2" d="M349.36,175.63c-0.15,0.06-0.58-0.99-1.54-1.91c-0.95-0.94-2.04-1.22-2.01-1.36
							c-0.01-0.15,1.29-0.07,2.37,0.99C349.26,174.38,349.49,175.61,349.36,175.63z"/>
					</g>
				</g>
				<g>
					<g>
						<path class="st2" d="M352.12,172.64c-0.15,0.06-0.58-0.99-1.54-1.91c-0.95-0.94-2.04-1.22-2.01-1.36
							c-0.01-0.15,1.29-0.07,2.37,0.99C352.02,171.39,352.25,172.62,352.12,172.64z"/>
					</g>
				</g>
				<g>
					<g>
						<path class="st2" d="M355.23,169.9c-0.15,0.06-0.58-0.99-1.54-1.91c-0.95-0.94-2.04-1.22-2.01-1.36
							c-0.01-0.15,1.29-0.07,2.37,0.99C355.12,168.65,355.36,169.88,355.23,169.9z"/>
					</g>
				</g>
				<g>
					<g>
						<path class="st2" d="M358.14,167.06c-0.15,0.06-0.58-0.99-1.54-1.91c-0.95-0.94-2.04-1.22-2.01-1.36
							c-0.01-0.15,1.29-0.07,2.37,0.99C358.04,165.81,358.27,167.04,358.14,167.06z"/>
					</g>
				</g>
				<g>
					<g>
						<path class="st2" d="M361.06,164.22c-0.15,0.06-0.58-0.99-1.54-1.91c-0.95-0.94-2.04-1.22-2.01-1.36
							c-0.01-0.15,1.29-0.07,2.37,0.99C360.96,162.97,361.19,164.2,361.06,164.22z"/>
					</g>
				</g>
				<g>
					<g>
						<path class="st2" d="M363.98,161.38c-0.15,0.06-0.58-0.99-1.54-1.91c-0.95-0.94-2.04-1.22-2.01-1.36
							c-0.01-0.15,1.29-0.07,2.37,0.99C363.88,160.13,364.11,161.36,363.98,161.38z"/>
					</g>
				</g>
				<g>
					<g>
						<path class="st2" d="M366.9,158.54c-0.15,0.06-0.58-0.99-1.54-1.91c-0.95-0.94-2.04-1.22-2.01-1.36
							c-0.01-0.15,1.29-0.07,2.37,0.99C366.8,157.29,367.03,158.52,366.9,158.54z"/>
					</g>
				</g>
				<g>
					<g>
						<path class="st2" d="M369.82,155.7c-0.15,0.06-0.58-0.99-1.54-1.91c-0.95-0.94-2.04-1.22-2.01-1.36
							c-0.01-0.15,1.29-0.07,2.37,0.99C369.71,154.45,369.95,155.68,369.82,155.7z"/>
					</g>
				</g>
				<g>
					<g>
						<path class="st2" d="M373,153.12c-0.15,0.06-0.58-0.99-1.54-1.91c-0.95-0.94-2.04-1.22-2.01-1.36
							c-0.01-0.15,1.29-0.07,2.37,0.99C372.9,151.87,373.13,153.1,373,153.12z"/>
					</g>
				</g>
				<g>
					<g>
						<path class="st2" d="M376.15,151.25c-0.16,0.02-0.34-1.09-1.09-2.2c-0.72-1.13-1.72-1.64-1.66-1.77
							c0.02-0.14,1.28,0.22,2.1,1.49C376.33,150.01,376.28,151.26,376.15,151.25z"/>
					</g>
				</g>
				<g>
					<g>
						<path class="st2" d="M379.88,149.19c-0.16-0.01-0.1-1.14-0.58-2.38c-0.46-1.26-1.32-1.98-1.23-2.09
							c0.05-0.14,1.2,0.49,1.72,1.91C380.33,148.02,380.01,149.23,379.88,149.19z"/>
					</g>
				</g>
				<g>
					<g>
						<path class="st2" d="M383.97,147.87c-0.15-0.05,0.17-1.13-0.02-2.45c-0.16-1.33-0.84-2.23-0.72-2.32
							c0.08-0.12,1.06,0.75,1.24,2.25C384.67,146.83,384.09,147.94,383.97,147.87z"/>
					</g>
				</g>
				<g>
					<g>
						<path class="st2" d="M387.7,147.87c-0.13-0.09,0.52-1.02,0.75-2.33c0.27-1.31-0.09-2.38,0.04-2.43
							c0.12-0.09,0.77,1.05,0.47,2.53C388.69,147.1,387.79,147.97,387.7,147.87z"/>
					</g>
				</g>
				<g>
					<g>
						<path class="st2" d="M392.02,149.19c-0.1-0.12,0.73-0.89,1.24-2.11c0.55-1.22,0.43-2.34,0.57-2.36
							c0.13-0.06,0.52,1.19-0.09,2.57C393.15,148.66,392.08,149.31,392.02,149.19z"/>
					</g>
				</g>
				<g>
					<g>
						<path class="st2" d="M395.63,151.31c-0.08-0.14,0.9-0.71,1.67-1.8c0.8-1.07,0.92-2.19,1.07-2.19
							c0.14-0.03,0.25,1.27-0.64,2.49C396.85,151.03,395.67,151.43,395.63,151.31z"/>
					</g>
				</g>
				<g>
					<g>
						<path class="st2" d="M398.57,154.25c-0.08-0.14,0.9-0.71,1.67-1.8c0.8-1.07,0.92-2.19,1.07-2.19
							c0.14-0.03,0.25,1.27-0.64,2.49C399.79,153.97,398.61,154.37,398.57,154.25z"/>
					</g>
				</g>
				<g>
					<g>
						<path class="st2" d="M401.51,157.19c-0.08-0.14,0.9-0.71,1.67-1.8c0.8-1.07,0.92-2.19,1.07-2.19
							c0.14-0.03,0.25,1.27-0.64,2.49C402.73,156.91,401.55,157.31,401.51,157.19z"/>
					</g>
				</g>
				<g>
					<g>
						<path class="st2" d="M404.45,160.13c-0.08-0.14,0.9-0.71,1.67-1.8c0.8-1.07,0.92-2.19,1.07-2.19
							c0.14-0.03,0.25,1.27-0.64,2.49C405.67,159.85,404.49,160.25,404.45,160.13z"/>
					</g>
				</g>
				<g>
					<g>
						<path class="st2" d="M407.34,163.22c-0.06-0.15,0.99-0.57,1.91-1.54c0.95-0.95,1.23-2.04,1.37-2.01
							c0.15-0.01,0.07,1.29-1,2.37C408.59,163.12,407.36,163.35,407.34,163.22z"/>
					</g>
				</g>
				<g>
					<g>
						<path class="st2" d="M410.36,166.85c-0.06-0.15,0.99-0.57,1.91-1.54c0.95-0.95,1.23-2.04,1.37-2.01
							c0.15-0.01,0.07,1.29-1,2.37C411.62,166.75,410.38,166.98,410.36,166.85z"/>
					</g>
				</g>
				<g>
					<g>
						<path class="st2" d="M413.39,170.47c-0.06-0.15,0.99-0.57,1.91-1.54c0.95-0.95,1.23-2.04,1.37-2.01
							c0.15-0.01,0.07,1.29-1,2.37C414.64,170.37,413.41,170.6,413.39,170.47z"/>
					</g>
				</g>
				<g>
					<g>
						<path class="st2" d="M416.41,174.09c-0.06-0.15,0.99-0.57,1.91-1.54c0.95-0.95,1.23-2.04,1.37-2.01
							c0.15-0.01,0.07,1.29-1,2.37C417.66,173.99,416.43,174.22,416.41,174.09z"/>
					</g>
				</g>
				<g>
					<g>
						<path class="st2" d="M419.44,177.72c-0.05-0.15,0.95-0.52,1.88-1.36c0.96-0.82,1.27-1.83,1.4-1.8
							c0.06,0.01,0.09,0.3-0.06,0.73c-0.14,0.43-0.48,0.99-1,1.45C420.61,177.68,419.46,177.84,419.44,177.72z"/>
					</g>
				</g>
				<g>
					<g>
						<path class="st2" d="M422.46,181.34c-0.05-0.15,0.92-0.52,1.81-1.35c0.92-0.81,1.22-1.79,1.36-1.77
							c0.06,0.01,0.09,0.29-0.05,0.72c-0.13,0.42-0.45,0.97-0.95,1.43C423.61,181.31,422.48,181.47,422.46,181.34z"/>
					</g>
				</g>
				<g>
					<g>
						<path class="st2" d="M425.68,185.42c-0.05-0.15,0.92-0.52,1.81-1.35c0.92-0.81,1.22-1.79,1.36-1.77
							c0.06,0.01,0.09,0.29-0.05,0.72c-0.13,0.42-0.45,0.97-0.95,1.43C426.84,185.39,425.7,185.55,425.68,185.42z"/>
					</g>
				</g>
				<g>
					<g>
						<path class="st2" d="M428.83,189.8c-0.05-0.15,0.92-0.52,1.81-1.35c0.92-0.81,1.22-1.79,1.36-1.77
							c0.06,0.01,0.09,0.29-0.05,0.72c-0.13,0.42-0.45,0.97-0.95,1.43C429.98,189.77,428.85,189.93,428.83,189.8z"/>
					</g>
				</g>
				<g>
					<g>
						<path class="st2" d="M441.79,210.94c0-0.16,1.04-0.2,2.15-0.7c1.13-0.48,1.72-1.31,1.85-1.24c0.06,0.03-0.01,0.31-0.27,0.67
							c-0.26,0.36-0.74,0.78-1.36,1.05C442.89,211.27,441.76,211.07,441.79,210.94z"/>
					</g>
				</g>
				<g>
					<g>
						<path class="st2" d="M443.08,213.47c0-0.16,1.04-0.2,2.15-0.7c1.13-0.48,1.72-1.31,1.85-1.24c0.06,0.03-0.01,0.31-0.27,0.67
							c-0.26,0.36-0.74,0.78-1.36,1.05C444.18,213.8,443.06,213.6,443.08,213.47z"/>
					</g>
				</g>
				<g>
					<g>
						<path class="st2" d="M445.51,221.31c0-0.16,1.04-0.2,2.15-0.7c1.13-0.48,1.72-1.31,1.85-1.24c0.06,0.03-0.01,0.31-0.27,0.67
							c-0.26,0.36-0.74,0.78-1.36,1.05C446.62,221.65,445.49,221.44,445.51,221.31z"/>
					</g>
				</g>
				<g>
					<g>
						<path class="st2" d="M446.58,224.52c0-0.16,1.04-0.2,2.15-0.7c1.13-0.48,1.72-1.31,1.85-1.24c0.06,0.03-0.01,0.31-0.27,0.67
							c-0.26,0.36-0.74,0.78-1.36,1.05C447.69,224.85,446.56,224.65,446.58,224.52z"/>
					</g>
				</g>
				<g>
					<g>
						<path class="st2" d="M447.35,228.21c0-0.16,1.04-0.2,2.15-0.7c1.13-0.48,1.72-1.31,1.85-1.24c0.06,0.03-0.01,0.31-0.27,0.67
							c-0.26,0.36-0.74,0.78-1.36,1.05C448.45,228.55,447.33,228.34,447.35,228.21z"/>
					</g>
				</g>
				<g>
					<g>
						<path class="st2" d="M447.5,231.6c0.03-0.15,1.06,0.03,2.25-0.23c1.21-0.23,1.96-0.92,2.07-0.82c0.05,0.04-0.07,0.3-0.41,0.59
							c-0.33,0.3-0.89,0.6-1.55,0.74C448.51,232.16,447.45,231.72,447.5,231.6z"/>
					</g>
				</g>
				<g>
					<g>
						<path class="st2" d="M448.08,235.1c0.03-0.15,1.06,0.03,2.25-0.23c1.21-0.23,1.96-0.92,2.07-0.82
							c0.05,0.04-0.07,0.3-0.41,0.59c-0.33,0.3-0.89,0.6-1.55,0.74C449.09,235.66,448.04,235.22,448.08,235.1z"/>
					</g>
				</g>
				<g>
					<g>
						<path class="st2" d="M448.67,238.6c0.03-0.15,1.06,0.03,2.25-0.23c1.21-0.23,1.96-0.92,2.07-0.82
							c0.05,0.04-0.07,0.3-0.41,0.59c-0.33,0.3-0.89,0.6-1.55,0.74C449.68,239.16,448.62,238.72,448.67,238.6z"/>
					</g>
				</g>
				<g>
					<g>
						<path class="st2" d="M448.88,242.02c0.06-0.15,1.07,0.21,2.33,0.15c1.27-0.03,2.15-0.61,2.24-0.5
							c0.04,0.05-0.13,0.29-0.52,0.53c-0.39,0.25-1,0.46-1.7,0.49C449.82,242.75,448.82,242.13,448.88,242.02z"/>
					</g>
				</g>
				<g>
					<g>
						<path class="st2" d="M449.2,245.77c0.06-0.15,1.07,0.21,2.33,0.15c1.27-0.03,2.15-0.61,2.24-0.5
							c0.04,0.05-0.13,0.29-0.52,0.53c-0.39,0.24-1,0.46-1.7,0.49C450.14,246.51,449.14,245.88,449.2,245.77z"/>
					</g>
				</g>
				<g>
					<g>
						<path class="st2" d="M449.48,249.2c0.06-0.15,1.07,0.21,2.33,0.15c1.27-0.03,2.15-0.61,2.24-0.5
							c0.04,0.05-0.13,0.29-0.52,0.53c-0.39,0.24-1,0.46-1.7,0.49C450.41,249.93,449.41,249.31,449.48,249.2z"/>
					</g>
				</g>
				<g>
					<g>
						<path class="st2" d="M449.75,252.63c0.06-0.15,1.07,0.21,2.33,0.15c1.27-0.03,2.15-0.61,2.24-0.5
							c0.04,0.05-0.13,0.29-0.52,0.53c-0.39,0.24-1,0.46-1.7,0.49C450.68,253.36,449.68,252.74,449.75,252.63z"/>
					</g>
				</g>
				<g>
					<g>
						<path class="st2" d="M450.02,256.06c0.06-0.15,1.07,0.21,2.33,0.15c1.27-0.03,2.15-0.61,2.24-0.5
							c0.04,0.05-0.13,0.29-0.52,0.53c-0.39,0.24-1,0.46-1.7,0.49C450.95,256.79,449.95,256.17,450.02,256.06z"/>
					</g>
				</g>
				<g>
					<g>
						<path class="st2" d="M450.29,259.49c0.06-0.15,1.07,0.21,2.33,0.15c1.27-0.03,2.15-0.61,2.24-0.5
							c0.04,0.05-0.13,0.29-0.52,0.53c-0.39,0.24-1,0.46-1.7,0.49C451.23,260.22,450.22,259.6,450.29,259.49z"/>
					</g>
				</g>
				<g>
					<g>
						<path class="st2" d="M450.56,262.91c0.06-0.15,1.07,0.21,2.33,0.15c1.27-0.03,2.15-0.61,2.24-0.5
							c0.04,0.05-0.13,0.29-0.52,0.53c-0.39,0.24-1,0.46-1.7,0.49C451.5,263.65,450.49,263.02,450.56,262.91z"/>
					</g>
				</g>
				<g>
					<g>
						<path class="st2" d="M450.56,266.73c0.06-0.15,1.07,0.21,2.33,0.15c1.27-0.03,2.15-0.61,2.24-0.5
							c0.04,0.05-0.13,0.29-0.52,0.53c-0.39,0.24-1,0.46-1.7,0.49C451.5,267.46,450.49,266.84,450.56,266.73z"/>
					</g>
				</g>
				<g>
					<g>
						<path class="st2" d="M450.72,270.3c0.07-0.14,1.05,0.28,2.31,0.3c1.27,0.05,2.19-0.47,2.27-0.35
							c0.04,0.05-0.14,0.28-0.55,0.49c-0.4,0.22-1.03,0.39-1.73,0.38C451.6,271.09,450.64,270.41,450.72,270.3z"/>
					</g>
				</g>
				<g>
					<g>
						<path class="st2" d="M450.76,273.74c0.07-0.14,1.05,0.28,2.31,0.3c1.27,0.05,2.19-0.47,2.27-0.35
							c0.04,0.05-0.15,0.28-0.55,0.49c-0.4,0.22-1.03,0.39-1.73,0.38C451.64,274.53,450.68,273.84,450.76,273.74z"/>
					</g>
				</g>
				<g>
					<g>
						<path class="st2" d="M450.8,277.18c0.07-0.14,1.05,0.28,2.31,0.3c1.27,0.05,2.19-0.47,2.27-0.35
							c0.04,0.05-0.14,0.28-0.55,0.49c-0.4,0.22-1.03,0.39-1.73,0.38C451.69,277.97,450.73,277.28,450.8,277.18z"/>
					</g>
				</g>
				<g>
					<g>
						<path class="st2" d="M450.73,281.08c0.07-0.14,1.05,0.28,2.31,0.3c1.27,0.05,2.19-0.47,2.27-0.35
							c0.04,0.05-0.15,0.28-0.55,0.49c-0.4,0.22-1.03,0.39-1.73,0.38C451.62,281.87,450.66,281.18,450.73,281.08z"/>
					</g>
				</g>
				<g>
					<g>
						<path class="st2" d="M450.9,285.11c0.07-0.14,1.05,0.28,2.31,0.3c1.27,0.05,2.19-0.47,2.27-0.35
							c0.04,0.05-0.15,0.28-0.55,0.49c-0.4,0.22-1.03,0.39-1.73,0.38C451.79,285.9,450.83,285.22,450.9,285.11z"/>
					</g>
				</g>
				<g>
					<g>
						<path class="st2" d="M450.9,289.04c0.07-0.14,1.05,0.28,2.31,0.3c1.27,0.05,2.19-0.47,2.27-0.35
							c0.04,0.05-0.15,0.28-0.55,0.49c-0.4,0.22-1.03,0.39-1.73,0.38C451.79,289.83,450.83,289.15,450.9,289.04z"/>
					</g>
				</g>
				<g>
					<g>
						<path class="st2" d="M450.91,293.17c0.07-0.14,1.05,0.28,2.31,0.3c1.27,0.05,2.19-0.47,2.27-0.35
							c0.04,0.05-0.14,0.28-0.55,0.49c-0.4,0.22-1.03,0.39-1.73,0.38C451.79,293.96,450.84,293.27,450.91,293.17z"/>
					</g>
				</g>
				<g>
					<g>
						<path class="st2" d="M450.91,297.1c0.07-0.14,1.05,0.28,2.31,0.3c1.27,0.05,2.19-0.47,2.27-0.35
							c0.04,0.05-0.14,0.28-0.55,0.49c-0.4,0.22-1.03,0.39-1.73,0.38C451.79,297.89,450.84,297.2,450.91,297.1z"/>
					</g>
				</g>
				<g>
					<g>
						<path class="st2" d="M450.92,301.22c0.07-0.14,1.05,0.28,2.31,0.3c1.27,0.05,2.19-0.47,2.27-0.35
							c0.04,0.05-0.15,0.28-0.55,0.49c-0.4,0.22-1.03,0.39-1.73,0.38C451.8,302.01,450.84,301.33,450.92,301.22z"/>
					</g>
				</g>
				<g>
					<g>
						<path class="st2" d="M450.92,305.15c0.07-0.14,1.05,0.28,2.31,0.3c1.27,0.05,2.19-0.47,2.27-0.35
							c0.04,0.05-0.15,0.28-0.55,0.49c-0.4,0.22-1.03,0.39-1.73,0.38C451.8,305.94,450.84,305.26,450.92,305.15z"/>
					</g>
				</g>
				<g>
					<g>
						<path class="st2" d="M450.92,309.28c0.07-0.14,1.05,0.28,2.31,0.3c1.27,0.05,2.19-0.47,2.27-0.35
							c0.04,0.05-0.14,0.28-0.55,0.49c-0.4,0.22-1.03,0.39-1.73,0.38C451.81,310.07,450.85,309.38,450.92,309.28z"/>
					</g>
				</g>
				<g>
					<g>
						<path class="st2" d="M450.92,313.21c0.07-0.14,1.05,0.28,2.31,0.3c1.27,0.05,2.19-0.47,2.27-0.35
							c0.04,0.05-0.14,0.28-0.55,0.49c-0.4,0.22-1.03,0.39-1.73,0.38C451.81,314,450.85,313.31,450.92,313.21z"/>
					</g>
				</g>
			</g>
		</g>
		<path class="st7" d="M418.8,202.36l3.33-1.54c1.46-4.18,2.83-7.1,4.37-8.15c2.14-1.45,9.51-6.26,9.51-6.26h-0.12l0,0
			c0,0,5.42-1.52,6.67-0.08c1.25,1.44-0.63,3.47-0.63,3.47s2.48-0.09,3.85,1.68c1.38,1.77-0.16,4.21-0.16,4.21s1.42-0.34,2.12,1.21
			c0.7,1.55-1.82,4.69-1.82,4.69s1.67,0.31,2.18,1.45c0.51,1.14-1.58,2.67-2.25,3.23c-0.67,0.57-17.37,7.31-17.37,7.31l-7.07,2.05
			L418.8,202.36z"/>
		<g>
			<path class="st7" d="M436.58,229.42c0.22-0.6,2.99-8.33,2.99-8.33l5.25-8.12l9.47-2.98c0,0,1.52,3-1.46,5.27
				c-2.98,2.27-4.55,2.02-4.55,2.02l-1.37,3.12c0,0,4.19,11.98-3.49,16.57l-3.9,0.19L436.58,229.42z"/>
			<g>
				<path class="st9" d="M454.28,210.16c0.02-0.01,0.14,0.26,0.24,0.79c0.09,0.52,0.15,1.34-0.17,2.29
					c-0.31,0.95-1.07,1.95-2.15,2.75c-1.08,0.8-2.44,1.45-3.94,1.97l0.14-0.11c-0.31,0.57-0.63,1.18-0.89,1.82
					c-0.13,0.31-0.25,0.66-0.27,0.95c0,0.09,0,0.07,0.02,0.18l0.08,0.27l0.15,0.54c0.98,4.13,0.61,8.07-0.33,10.67
					c-0.48,1.3-1.11,2.26-1.61,2.84c-0.25,0.29-0.46,0.51-0.62,0.64c-0.15,0.13-0.24,0.2-0.25,0.19c-0.1-0.07,1.28-1.2,2.13-3.79
					c0.83-2.55,1.13-6.42,0.17-10.42l-0.15-0.52l-0.08-0.26c-0.02-0.07-0.06-0.27-0.05-0.36c0.04-0.44,0.18-0.78,0.32-1.12
					c0.28-0.67,0.6-1.29,0.94-1.87l0.05-0.08l0.09-0.03c1.47-0.49,2.8-1.1,3.85-1.84c1.04-0.74,1.78-1.64,2.11-2.51
					c0.34-0.87,0.34-1.65,0.3-2.16C454.31,210.45,454.24,210.17,454.28,210.16z"/>
			</g>
		</g>
	</g>
</g>
</svg>
